<svg width="55" height="12" viewBox="0 0 55 12" fill="none" xmlns="http://www.w3.org/2000/svg">
<path d="M10.3444 5.675C10.3444 8.55479 8.11947 10.85 5.42222 10.85C2.72498 10.85 0.5 8.55479 0.5 5.675C0.5 2.79521 2.72498 0.5 5.42222 0.5C8.11947 0.5 10.3444 2.79521 10.3444 5.675Z" stroke="#7055FD"/>
<path d="M10.3444 5.675C10.3444 8.55479 8.11947 10.85 5.42222 10.85C2.72498 10.85 0.5 8.55479 0.5 5.675C0.5 2.79521 2.72498 0.5 5.42222 0.5C8.11947 0.5 10.3444 2.79521 10.3444 5.675Z" stroke="black" stroke-opacity="0.2"/>
<path d="M32.0329 5.675C32.0329 8.55479 29.8079 10.85 27.1107 10.85C24.4135 10.85 22.1885 8.55479 22.1885 5.675C22.1885 2.79521 24.4135 0.5 27.1107 0.5C29.8079 0.5 32.0329 2.79521 32.0329 5.675Z" stroke="#7055FD"/>
<path d="M32.0329 5.675C32.0329 8.55479 29.8079 10.85 27.1107 10.85C24.4135 10.85 22.1885 8.55479 22.1885 5.675C22.1885 2.79521 24.4135 0.5 27.1107 0.5C29.8079 0.5 32.0329 2.79521 32.0329 5.675Z" stroke="black" stroke-opacity="0.2"/>
<path d="M53.7224 5.675C53.7224 8.55479 51.4974 10.85 48.8002 10.85C46.1029 10.85 43.8779 8.55479 43.8779 5.675C43.8779 2.79521 46.1029 0.5 48.8002 0.5C51.4974 0.5 53.7224 2.79521 53.7224 5.675Z" stroke="#7055FD"/>
<path d="M53.7224 5.675C53.7224 8.55479 51.4974 10.85 48.8002 10.85C46.1029 10.85 43.8779 8.55479 43.8779 5.675C43.8779 2.79521 46.1029 0.5 48.8002 0.5C51.4974 0.5 53.7224 2.79521 53.7224 5.675Z" stroke="black" stroke-opacity="0.2"/>
</svg>
