<svg width="64" height="64" viewBox="0 0 64 64" fill="none" xmlns="http://www.w3.org/2000/svg">
<path fill-rule="evenodd" clip-rule="evenodd" d="M53.3334 20.64L57.7601 24.6667C58.8633 25.6394 58.9707 27.3216 58.0001 28.4267C57.0274 29.5299 55.3451 29.6373 54.2401 28.6667L53.3334 27.8667V50.6667C53.3334 55.0849 49.7517 58.6667 45.3334 58.6667H37.3334C35.8606 58.6667 34.6667 57.4728 34.6667 56V42.6667C34.678 41.9721 34.3975 41.3046 33.8934 40.8267C33.399 40.3079 32.7166 40.01 32.0001 40C30.5273 40 29.3334 41.1939 29.3334 42.6667V56C29.3334 57.4728 28.1395 58.6667 26.6667 58.6667H18.6667C14.2485 58.6667 10.6667 55.0849 10.6667 50.6667V27.8667L9.76007 28.6667C8.6483 29.5621 7.02851 29.4232 6.08543 28.3516C5.14235 27.2799 5.21052 25.6556 6.24007 24.6667L10.6667 20.64L12.9334 18.6667L30.2401 3.33334C31.2468 2.44895 32.7534 2.44895 33.7601 3.33334L51.0667 18.6667L53.3334 20.64ZM45.3334 53.3333C46.8062 53.3333 48.0001 52.1394 48.0001 50.6667V23.12L32.0001 8.90667L16.0001 23.12V50.6667C16.0001 52.1394 17.194 53.3333 18.6667 53.3333H24.0001V42.6667C24.0001 38.2484 27.5818 34.6667 32.0001 34.6667C36.4184 34.6667 40.0001 38.2484 40.0001 42.6667V53.3333H45.3334Z" fill="#231F20"/>
</svg>
