<svg width="64" height="64" viewBox="0 0 64 64" fill="none" xmlns="http://www.w3.org/2000/svg">
<path fill-rule="evenodd" clip-rule="evenodd" d="M50.3999 32.5333L48.5066 24L50.3999 15.4666C50.6978 14.1135 49.9098 12.7576 48.5866 12.3466L40.2399 9.67996L33.8132 3.78663C32.7904 2.83805 31.2094 2.83805 30.1866 3.78663L23.7599 9.70663L15.4132 12.3733C14.1023 12.7835 13.3174 14.1224 13.5999 15.4666L15.4932 24L13.5999 32.5333C13.302 33.8865 14.09 35.2423 15.4132 35.6533L21.3332 37.52V56C21.3383 56.9782 21.8786 57.8752 22.741 58.3371C23.6035 58.7989 24.6495 58.7514 25.4666 58.2133L31.9999 53.8666L38.5332 58.2133C39.3503 58.7514 40.3963 58.7989 41.2588 58.3371C42.1212 57.8752 42.6615 56.9782 42.6666 56V37.52L48.5866 35.6533C49.9098 35.2423 50.6978 33.8865 50.3999 32.5333ZM30.5332 48.5333L26.6666 51.2V40.96L30.1866 44.2133C30.6824 44.664 31.3298 44.9116 31.9999 44.9066C32.6677 44.8992 33.3108 44.6533 33.8132 44.2133L37.3332 40.96V51.0133L33.4666 48.5333C32.5766 47.9472 31.4232 47.9472 30.5332 48.5333ZM37.0666 34.0266C37.3619 33.7655 37.7064 33.5661 38.0799 33.44L44.6666 31.3066L43.1466 24.5866C43.0668 24.1996 43.0668 23.8003 43.1466 23.4133L44.6666 16.6933L38.0799 14.64C37.7064 14.5138 37.3619 14.3144 37.0666 14.0533L31.9999 9.38663L26.9332 14.0533C26.6379 14.3144 26.2934 14.5138 25.9199 14.64L19.3332 16.6933L20.8532 23.4133C20.933 23.8003 20.933 24.1996 20.8532 24.5866L19.3332 31.3066L25.9199 33.36C26.2934 33.4861 26.6379 33.6855 26.9332 33.9466L31.9999 38.6133L37.0666 34.0266Z" fill="#231F20"/>
</svg>
