<?xml version="1.0" encoding="UTF-8"?>
<svg id="Layer_2" xmlns="http://www.w3.org/2000/svg" width="2000" height="2000" viewBox="0 0 2000 2000">
  <defs>
    <style>
      .cls-1 {
        fill: #14d3ae;
      }

      .cls-2 {
        fill: #fdbab7;
      }

      .cls-3 {
        fill: #fb6d68;
      }

      .cls-4 {
        fill: #fa5f78;
      }

      .cls-5 {
        fill: #fb6670;
      }

      .cls-6 {
        fill: #171415;
      }

      .cls-7 {
        fill: #fb6b6a;
      }

      .cls-8 {
        fill: #7e67f6;
      }

      .cls-9 {
        fill: #030303;
      }

      .cls-10 {
        fill: #b9f9e3;
      }

      .cls-11 {
        fill: #292f2e;
      }

      .cls-12 {
        fill: #f7f7f8;
      }

      .cls-13 {
        fill: #f95e79;
      }

      .cls-14 {
        fill: #282727;
      }

      .cls-15 {
        fill: #fb6373;
      }
    </style>
  </defs>
  <path class="cls-14" d="M655.68,1456c-12.7-16.17-21.89-34.34-28.49-53.63-23.5-68.77-44.02-138.4-59.93-209.37-9.02-40.26-19.07-80.3-27.52-120.69-3.52-16.84-7.39-33.7-7.36-51.09,0-1.61-.66-2.78-1.82-3.8-34.33-30.15-56.44-68.92-76.93-108.88-16.69-32.56-32.07-65.6-41.99-101.01-9.55-34.08-15.27-68.63-13.05-104.02,2.42-38.54,14.73-73.49,41.69-102.1,11.27-11.96,24.73-20.64,41.59-22.48,14.73-1.61,26.36,5.37,37.31,13.99,18.74,14.75,26.98,35.25,31.66,57.72.36,1.75.72,3.5,1.11,5.25.06.28.27.53.49.93.41-.1.92-.08,1.26-.32,13.68-9.58,27.08-7.03,36.22,7.08,5.67,8.75,7.11,18.77,7.83,28.85,1.64,22.81-2.01,45.23-7.36,67.15-7.77,31.83-7.64,63.71-4.76,95.96,1.4,15.73,3.28,31.34,6.28,46.84.12.6.34,1.17.58,2,2.33-.69,3.04-2.62,4.02-4.14,21.76-33.7,46.61-65.11,72.96-95.23,26.55-30.36,60.1-49.05,99.76-58.17,57.83-13.3,116.07-24.36,174.41-34.91,30.66-5.54,61.49-10.85,92.71-12.95,19.18-1.29,37.72-7.07,56.86-8.63,29.67-2.41,59.4-2.29,88,6.69,29.56,9.28,53,27.26,67.81,55.15,11.82,22.26,21.52,45.5,30.95,68.83,16.91,41.84,33.8,83.7,48.87,126.26,2.11,5.96,4.38,11.93,5.79,18.07,1.18,5.11,3.05,4.28,6.31,2.04,14.48-9.97,26.72-22.13,37.22-36.25,14.46-19.45,23.64-41.21,30.8-64.22,8.47-27.25,14.07-54.79,12.75-83.4-.91-19.69-4.85-39-8.28-58.37-2.49-14.08-5.64-28.05-6.79-42.33-1.01-12.57-.83-25.1,4.16-36.95,6.29-14.95,19.07-18.52,32.43-9.35,3.62,2.49,6.62,5.68,9.88,8.98,1.39-1.64,1.44-3.44,1.96-5.05,6.72-20.93,18.77-38.45,34.79-53.25,13.08-12.09,27.87-12.59,44.16-6.71,27.51,9.93,41.09,30.86,48.08,57.68,6.7,25.75,7.31,51.78,3.8,77.97-4.22,31.46-9.85,62.59-20.38,92.73-12.15,34.78-25.32,69.14-45.55,100.1-18.25,27.94-39.38,53.74-61.25,79-16.43,18.97-36.45,33.3-56.24,48.07-11.46,8.56-23.38,16.52-35.29,24.45-7.47,4.97-7.39,4.68-6.14,13.59,3.75,26.72,6.55,53.56,9.1,80.42,2.55,26.86,5.11,53.73,7.35,80.62,1.36,16.34,3.81,32.61,3.41,49.07-3.69-3.59-6.66-1.23-9.56,1.22-2.92,2.47-5.62,5.28-9.76,5.62-.19-1.96-.39-3.93-.58-5.89.18-1.69.4-3.39-.41-5-.2-4.19-.41-8.38-.61-12.57.19-1.05.31-2.1-.45-3.01l-.46-7.74c.19-1.06.28-2.11-.45-3.04-.22-2.89-.43-5.79-.65-8.68.21-.74.2-1.44-.39-2.03-.18-2.9-.36-5.81-.54-8.71-.12-.69-.24-1.38-.37-2.06-.22-2.89-.43-5.79-.65-8.68.2-.74.2-1.45-.41-2.02-.19-2.58-.38-5.16-.57-7.74.21-.75.18-1.44-.42-2.02-.19-2.58-.37-5.16-.56-7.75.21-.74.21-1.45-.38-2.04-.19-2.9-.37-5.8-.56-8.7.2-.75.2-1.45-.37-2.06-.22-3.55-.43-7.09-.65-10.64.22-.74.21-1.44-.38-2.03-1.06-7.42-2.34-14.82-2.08-22.36,1.36-1.34.33-2.61-.13-3.89-.1-3.26-.2-6.53-.3-9.79.14-.62.24-1.44-.48-1.56-1.05-.17-1.64.72-2.18,1.51-13.02,10.26-27.86,17.15-43.08,23.35-10.57,3.31-21.05,6.99-31.75,9.86-17.3,4.64-34.74,8.76-52.12,13.1-10.14,2.17-20.26,4.4-30.42,6.48-22.69,4.64-45.4,9.2-68.1,13.79-.98.07-1.95.13-2.93.2-.75-.17-1.46-.17-2.03.46-26.12,3.35-52.31,6.09-78.14,11.62-12.39,2.66-25.1,3.79-37.61,5.98-10.66,1.87-21.47,3.07-32.26,3.91-13.29,1.04-26.52,2.78-39.88,3.08-27.95.62-55.88,2.89-83.86.97-11.88-.81-23.42-3.01-34.64-7.33-17.6-6.78-28.05-20.83-36.92-36.1-18.35-31.61-31.39-65.67-43.27-100.08-13.84-40.07-24.86-81.04-36.36-121.84-9.89-35.09-18.43-70.46-23.57-106.58-1.02-7.15-1.54-14.37-2.43-22.9-5.78,6.88-10.92,12.69-15.71,18.77-17.94,22.75-33.34,47.32-50.49,70.63-1.45,1.98-1.27,3.72-.52,5.89,3.3,9.56,7.28,18.81,12.69,27.36,10.52,16.6,22.37,32.01,39.65,42.28,5.7,3.39,7.51,7.68,5.06,12.35-2.27,4.35-7.95,5.93-13.22,3.38-6.1-2.95-11.77-6.61-16.78-11.2-14.46-13.26-27.3-27.85-36.76-45.18-9.81-20.35-15.85-41.84-19.72-64.04-3.94-22.62-5.76-45.43-7.09-68.31-1.16-19.89-.85-39.67,3.25-59.22,4.03-19.24,8.23-38.45,10.13-58.05,1.16-12.01,1.32-24.03-2.1-35.81-1.07-3.69-2.53-7.69-6.58-8.34-3.59-.57-5.19,3.34-7.17,5.82-3.38,4.23-5.31,9.3-7.92,13.98-2.33,4.18-5.77,6.81-10.7,6.04-5.15-.81-7.78-4.4-8.52-9.39-.29-1.92-.36-3.89-.34-5.83.11-7.99-.53-15.91-2.15-23.75-2.77-13.43-5.65-27.06-14.41-37.94-21.52-26.7-39.17-28.72-62.58-5.34-24.53,24.49-34.62,55.81-36.88,89.55-2.28,34.23,3.39,67.69,13.12,100.52,15.7,53,41.46,101.22,69.98,148.15,12.62,20.78,29,38.29,47.33,54.08,11.46,10.94,23.18,21.66,36.77,29.87,18.87,11.4,38.07,22.25,59.1,29.42,6.21,2.12,8.76,7.35,6.94,12.53-1.99,5.66-6.92,7.86-13.47,5.88-3.71-1.12-7.38-2.42-11.06-3.64-.39-.27-.75-.61-1.18-.8-24.24-10.74-47.7-22.82-68.54-39.46-.72-.58-1.38-1.44-2.57-1.09-.61,1.78.04,3.52.32,5.25,3.59,21.92,8.51,43.57,13.65,65.16,4.29,18.04,7.69,36.29,12.77,54.15,13.82,59.28,27.14,118.69,46.85,176.39,7.55,22.11,12.66,45.05,22.18,66.5,11.95,26.91,28.25,50.68,50.93,69.78-2.09,2.82-4.95,1.61-7.52,1.29-7.62-.96-15.1-3.02-22.87-2.62l-.09-.02c-.05-1.09-.52-1.79-1.68-1.9l-2.28-2.87c.02-1.11-.41-1.87-1.6-2.02-2.05-2.06-3.82-4.33-5.18-6.91-.03-1-.41-1.72-1.5-1.89-.49-.65-.97-1.3-1.46-1.95,0-1.07-.43-1.81-1.58-1.95ZM867,1215.7c12.96.95,26.58-.89,40.24-.87,19.25.03,38.29-2.51,57.37-4.33,26.69-2.55,53.17-6.79,79.6-11.33,40.01-6.86,80.53-10.28,120.25-19.35,38.63-8.82,77.61-16.12,115.62-27.52,17.96-5.39,35.18-12.54,50.7-23.3,8.7-6.03,12.54-14.51,12.96-24.93.27-6.89-.91-13.61-1.79-20.36-5.93-45.13-18.25-88.69-32.89-131.64-11.42-33.5-25.01-66.19-37.97-99.11-11.9-30.21-24.14-60.3-38.82-89.31-12.46-24.62-32.75-40.29-58.77-47.74-27.53-7.89-55.84-7.86-84.22-4.87-18.58,1.95-36.68,6.65-55.42,8.11-28.51,2.22-56.87,6.69-84.95,12.11-56.93,10.99-114.12,20.71-170.52,34.38-22.89,5.54-45.23,12.11-64.46,26.31-12.5,9.23-23.85,19.48-25.1,36.5-.39,5.35-.7,10.73-.52,16.08.69,20.91,4.57,41.44,9.52,61.61,17.8,72.56,37,144.75,64.12,214.54,8.11,20.88,17.06,41.41,28.04,61.03,10.54,18.85,25.41,30.94,47.53,32.76,9.57.79,19.15,1.45,29.49,1.24ZM1567.8,685.52c.11-18.43-2.81-36.24-8.94-53.64-5.64-16.02-16.21-26.37-32.01-32.5-10.68-4.15-19.61-2.66-27.09,5.42-14.21,15.35-25.82,32.16-28.38,53.82-.67,5.65-.1,11.41-1.68,16.95-1.3,4.59-4,7.89-8.85,8.71-4.28.72-7.68-1.17-9.94-4.76-1.46-2.33-2.54-4.9-3.71-7.4-3.29-7.03-7.94-13.02-13.69-18.2-2.81-2.53-4.52-1.82-5.44,1.66-1.41,5.37-2.23,10.85-2.18,16.38.15,19.15,4.98,37.64,8.21,56.34,4.79,27.73,9.42,55.4,6.52,83.79-3.62,35.47-13.21,69.27-28.59,101.24-14.94,31.07-37.26,55.87-67.73,72.73-2.48,1.37-2.45,2.7-1.78,5.08,4.51,15.94,9.14,31.87,12.1,48.19.78,4.28,2.34,4.03,5.33,1.9,9-6.43,18.3-12.44,27.15-19.06,17.82-13.31,36.76-25.27,51.56-42.28,6.94-7.97,14.14-15.73,20.87-23.87,16.89-20.44,33.31-41.28,47.16-63.94,19.82-32.44,33.05-67.81,44.13-103.92,10.24-33.36,15.58-67.73,16.96-102.63Z"/>
  <path class="cls-6" d="M671.05,1475.5c7.77-.4,15.26,1.66,22.87,2.62,2.57.32,5.43,1.53,7.52-1.29.88.4,1.77.8,2.65,1.2.45,1.39,1.44,1.47,2.62,1.09,3.03.88,6.07,1.77,9.1,2.65.33,1.24.8,2.03,1.98.63,8.67,2.19,17.44,3.56,26.38,4.41,28.05,2.66,56.22,4.2,84.3,3.09,35.6-1.41,70.8-7.38,105.96-13.04,24.72-3.98,49.41-8.17,74.19-11.75,39.33-5.69,78.71-10.8,117.12-21.63,23.93-6.75,48.27-12.07,72.28-18.54,26.95-7.25,53.74-15.06,80.6-22.65,16.96-4.79,34.05-9.17,49.73-17.59,10.79-5.8,19.45-13.6,25.22-24.64,10.53-20.17,11.22-41.47,8.07-63.32-.02-1.9-.05-3.81-.07-5.71,4.14-.35,6.84-3.15,9.76-5.62,2.9-2.45,5.87-4.81,9.56-1.22,2.2,19.39,4.5,38.92.48,58.21-6.74,32.38-25.29,55.13-56.85,66.73-25.61,9.42-52.08,15.88-78.2,23.54-34.11,10.01-68.52,18.89-103.17,26.8-3.37.77-4.45,2.63-5.05,5.44-2.26-.08-4.47.15-6.72.41-6.41.73-12.46,3.42-18.99,3.36-10.51,1.75-21.07,3.29-31.54,5.28-33.85,6.45-68.15,10-102.13,15.55-26.29,4.29-52.58,8.66-78.89,12.89-1.1.18-2.24.15-3.37.21-.04-2.81-1.51-3.45-4.12-3.11-6.99.92-14.13,1.09-20.99,2.57-6.53,1.41-13.92.42-19.32,5.73-2.79.27-5.82-1.13-8.33,1.17-1.01.07-2.02.15-3.04.22-3.28-.49-6.59-1.49-9.65.75-6.47.81-12.93.87-19.41.09-6.42-2.42-12.97-1.34-19.5-.68-6.54-.2-13.08-.39-19.62-.59-3.1-1.79-6.35-1.16-9.6-.59-1.01-.05-2.02-.11-3.04-.16-2.45-2.09-5.11-1.42-7.79-.59-.99-.08-1.97-.17-2.96-.25-3.89-2.66-8.17-.96-12.29-1.14-.8-.05-1.6-.1-2.39-.14-4.76-1.42-9.56-2.62-14.6-2.31-.66-.22-1.31-.45-1.97-.67-.68-1.04-1.61-1.08-2.65-.65-.44-.12-.88-.25-1.32-.37-7.91-2.87-15.82-5.75-23.73-8.62-.86-.49-1.72-.99-2.58-1.48-.15-1.19-.88-1.64-2.01-1.59-5.56-4.18-10.16-9.32-14.52-14.7Z"/>
  <path class="cls-11" d="M1388.64,625.1c-8.6.41-16.26-3-23.96-6.74-27.42-13.34-52.01-30.79-74.92-50.77-6.98-6.09-14.73-11.36-21.31-17.84-6.55-6.45-13.38-12.8-18.16-20.89-4.6-7.79-6.82-16.1-6.5-25.15.77-21.43,4.17-42.42,11.19-62.68,4.56-13.16,12.16-24.86,20.02-36.21,17.13-24.73,33.99-49.66,52.68-73.28,3.45-4.36,7.5-8.15,12.41-10.87,8.32-4.61,17.02-5.22,25.12-.23,12.72,7.84,25.11,16.24,37.44,24.69,20.11,13.79,40.73,26.92,58.18,44.24,6.54,6.49,11.65,13.54,15.5,22.12,4.35,9.71,10.71,18.54,15.95,27.91,4.3,7.68,8.17,15.55,11.89,23.5,6.28,13.45,5.47,26.78-.98,40.01-8.97,18.4-21.07,34.74-33.41,50.93-12.83,16.82-25.95,33.4-40.74,48.59-5.23,5.37-10.71,10.41-16.59,15.07-6.96,5.54-14.84,7.89-23.81,7.62ZM1464.07,418.67c.04-6.38-2.41-11.2-7.79-16.69-19.71-20.1-43.1-35.49-66-51.48-9.58-6.69-19.24-13.28-29.11-19.53-5.98-3.79-12.06-2.96-17.7,1.39-4.83,3.73-8.53,8.48-12,13.36-14.89,20.91-29.8,41.8-44.37,62.94-8.57,12.44-16.77,25.17-21.8,39.6-1.44,4.11-1.45,7.95,1.87,11.29,8.25,8.32,17,16.09,26.45,23.01,16.25,11.9,32.56,23.73,49.02,35.34,9.81,6.93,19.73,13.75,31.14,18.01,5.97,2.23,11.16,1.45,15.72-2.98,2.09-2.03,4.21-4.08,6.05-6.33,12.71-15.47,22.82-32.79,34.76-48.82,9.98-13.4,20.18-26.73,27.91-41.66,3.01-5.81,5.49-11.78,5.85-17.45ZM1496.26,481.46c.42-6.25-1.93-12.16-4.76-17.86-4.7-9.46-9.6-18.82-14.46-28.2-.64-1.24-.88-3.24-2.5-3.29-1.74-.05-1.83,2.02-2.4,3.25-4.79,10.37-10.74,20.04-17.36,29.33-11.32,15.88-22.72,31.7-33.8,47.74-6.94,10.04-13.67,20.19-22.41,28.8-7.91,7.78-17.12,10.24-27.73,6.59-5.24-1.8-10.29-4.04-15.04-6.9-23.55-14.21-45-31.44-67.51-47.16-8.92-6.23-17.28-13.25-25.06-20.92-.76-.74-1.36-2.02-2.75-1.6-.97.29-.84,1.3-.85,2.07-.12,6.89-2.33,13.42-3.45,20.14-2.42,14.57-.41,27.59,10.86,38.54,4.55,4.42,9.26,8.57,14.11,12.61,11.12,9.24,22.15,18.59,33.32,27.77,18.2,14.94,38.47,26.59,59.5,37.01,7.06,3.5,14.49,4.75,22.26,2.95,6.65-1.54,11.41-6.18,16.12-10.57,14.19-13.21,26.8-27.89,38.51-43.31,13.84-18.24,28.56-35.89,39.12-56.41,3.28-6.38,6.57-12.75,6.29-20.57Z"/>
  <path class="cls-11" d="M1024.63,355.39c1.11-16.72,4.85-33.52,9.65-50.1,7.33-25.3,13.89-50.83,22.35-75.8,1.57-4.63,3.64-9.07,6.45-13.09,6.59-9.41,15.66-14.02,26.98-11.44,17.27,3.94,34.37,8.61,51.49,13.15,20.12,5.33,40.23,10.72,59.21,19.58,8.91,4.16,16.57,9.49,23.65,16.65,8.39,8.48,18.22,15.66,27.14,23.73,5.9,5.34,11.61,10.93,17.04,16.75,9.36,10.03,12.56,22.14,11.09,35.63-2.06,18.88-7.34,36.99-13.16,54.96-7.16,22.14-14.51,44.21-24.45,65.31-2.57,5.46-5.32,10.8-8.38,15.97-9.34,15.79-23.69,21.7-41.34,20-31.48-3.03-61.71-11.17-91-23-9.19-3.71-18.75-6.55-27.87-10.42-20.78-8.8-36.96-21.38-41.59-45.7-3.26-17.14-6.34-34.17-7.26-52.19ZM1037.02,351.56c-.12,13.9,1,15.12,10.87,19.62,20.97,9.57,43.3,14.93,65.24,21.49,14,4.18,27.93,8.72,42.34,11.42,20.19,3.79,25.63.9,31.68-18.59,5.74-18.46,10.77-37.13,16.14-55.71,4.6-15.91,9.72-31.68,12.14-48.16,2.46-16.8-1.1-24.07-16.29-31.24-14.28-6.75-29.04-12.23-44.29-16.4-21-5.74-41.92-11.73-62.95-17.35-10.2-2.73-15.94.08-20.93,9.34-2.33,4.32-3.94,8.94-5.29,13.62-6.71,23.26-13.4,46.53-19.98,69.84-4.2,14.87-7.53,29.92-8.67,42.13ZM1267.86,325.07c.37-8.23-2.33-15.34-7.52-21.61-8.75-10.57-19.51-19.09-29.26-28.64-2.64-2.58-2.71,0-2.87,1.8-.88,9.41-2.43,18.71-5,27.79-5.84,20.64-12,41.19-17.7,61.87-3.38,12.23-6.41,24.55-12.1,35.99-4.46,8.97-11.33,14.42-21.67,15.05-12.39.76-24.31-1.86-35.95-5.4-31.08-9.44-62.96-16.44-92.84-29.64-2.33-1.03-3.66-.44-2.84,2.25,1.83,5.96,1.97,12.18,2.99,18.25,1.99,11.85,5.72,22.92,16.21,30.03,7.12,4.82,15.14,7.94,23.23,11.03,35.12,13.4,70.17,26.78,108.03,30.53,11.81,1.17,22.58.03,30.21-10.24,3.97-5.34,6.93-11.34,9.82-17.37,11.62-24.3,19.52-49.95,27.66-75.51,4.79-15.05,8.6-30.33,9.6-46.17Z"/>
  <path class="cls-11" d="M985.87,349.04c-.29,17.78-2.34,35.33-6.32,52.68-3.57,15.58-12.28,26.73-26.42,34.31-31.49,16.89-64.25,30.58-98.78,39.78-10.19,2.71-20.63,4.83-31.09,6.12-17.63,2.17-31.88-3.82-41.59-19.37-11.95-19.14-20.95-39.67-29.08-60.62-9-23.2-18.33-46.3-22.46-71.06-2.42-14.53.59-27.49,10.41-38.63,11.63-13.18,24.05-25.58,37.3-37.14.86-.75,1.94-1.34,2.55-2.25,10.86-16.26,28.58-22.21,45.28-29.01,22.13-9.01,45.11-15.79,68.15-22.25,5.62-1.58,11.01-3.99,16.64-5.53,14.59-4.01,25.42.57,33.06,13.56,5.24,8.91,8.56,18.63,11.7,28.36,9.37,29.09,21.16,57.4,27.83,87.36,1.74,7.82,2.92,15.66,2.82,23.68ZM790.88,268.07c.59,12.45,4.14,24.27,8.01,36.01,6.1,18.52,13.05,36.74,18.77,55.4,3.52,11.47,6.85,23.08,13.39,33.38,3.12,4.91,7.63,7.01,13.24,6.54,5.66-.47,11.29-1.29,16.8-2.78,16.18-4.38,31.82-10.38,47.67-15.76,19.86-6.74,39.76-13.36,58.36-23.31,4.73-2.53,6.84-5.99,6.65-11.32-.52-14.31-4.56-27.88-8.79-41.34-5.7-18.13-11.94-36.1-18.16-54.06-3.88-11.2-6.89-22.73-12.29-33.36-5.45-10.75-11.57-13.61-23.07-10.08-14.74,4.53-29.36,9.45-44.03,14.24-21.66,7.07-43.09,14.67-63.19,25.61-8.31,4.52-13.95,10.61-13.36,20.83ZM816.38,470.55c10.16-1.01,20.04-3.04,29.84-5.29,36.38-8.37,70.05-23.8,103.32-40.17,9.83-4.84,15.7-13.22,18.35-23.98,2.39-9.68,1.81-19.74,4.17-29.4.19-.79.54-1.67-.3-2.2-.78-.49-1.53.08-2.25.45-2.61,1.33-5.21,2.68-7.86,3.92-20.82,9.77-42.89,16.17-64.5,23.78-14.4,5.07-28.71,10.47-43.87,13.06-18.91,3.24-28.33-1.48-36.61-18.69-.77-1.61-1.47-3.26-2.19-4.9-5-11.34-8.14-23.32-11.86-35.09-8.17-25.84-19.85-50.62-23.57-77.81-.42-3.06-1.7-3.63-4.01-1.26-8.5,8.75-17.29,17.21-25.19,26.53-6.28,7.42-9.47,15.95-8.35,25.69.62,5.31,1.81,10.58,3.06,15.79,5.67,23.66,15.08,46.02,24.1,68.5,6.85,17.06,14.66,33.68,24.89,49.08,5.54,8.34,13.77,10.85,22.8,11.99Z"/>
  <path class="cls-11" d="M756.49,498c.18,13.39-4.24,23.85-12.1,33.18-19.55,23.24-42.28,43.13-65.6,62.36-12.7,10.48-26.79,19.05-41.3,26.74-16.05,8.51-31.77,7.76-46.56-3.74-11.34-8.81-21.84-18.54-31.57-29.03-21.67-23.36-43.5-46.61-60.39-73.94-9.52-15.4-10.46-30.92-3.14-47.41,6.73-15.16,13.3-30.37,21.49-44.82.48-.85,1.07-1.71,1.25-2.63,2.45-12.4,11.11-20.69,19.3-29.29,18.27-19.18,39.87-34.38,60.78-50.37,7.35-5.62,14.36-11.69,21.95-16.98,12.11-8.45,23.85-7.95,35.33,1.4,8.39,6.84,14.96,15.38,21.71,23.71,14.84,18.32,29.4,36.87,44.23,55.2,22.84,28.22,31.54,61.44,34.6,95.61ZM531.01,422.41c.22,5.42,2.26,10.19,4.73,14.81,6.95,13,16.44,24.17,25.7,35.52,14.38,17.64,28.33,35.64,43.02,53.03,12.19,14.43,17.78,14.91,33.79,5,12.63-7.82,23.71-17.7,35.11-27.11,16.79-13.87,34.38-26.83,49.54-42.6,12.38-12.87,12.68-15.82,3.06-31.01-.35-.55-.71-1.09-1.05-1.64-13.69-22.06-30.79-41.51-47.07-61.59-8.81-10.85-16.8-22.39-26.88-32.18-9.45-9.17-16.13-9.65-26.61-1.61-18.58,14.24-36.98,28.71-55.01,43.65-12.05,9.99-23.09,21.01-33.31,32.86-3.19,3.7-4.84,8.04-5.01,12.88ZM738.42,462.32c-5.29,5.35-9.48,9.86-13.96,14.06-18.66,17.47-39.1,32.81-58.73,49.13-9.51,7.91-19.38,15.32-30.64,20.7-10.9,5.2-21,4.59-30.44-3.35-3.88-3.26-7.57-6.7-10.74-10.61-13.53-16.66-26.9-33.44-40.41-50.11-10.95-13.52-22.31-26.73-30.19-42.44-1.69-3.36-2.77-.62-3.41.82-5.1,11.43-10.59,22.69-14.87,34.46-3.93,10.82-2.69,21.14,3.41,30.83,3.72,5.92,7.38,11.9,11.54,17.5,13.99,18.81,29.63,36.26,45.59,53.38,10.75,11.53,22.02,22.58,34.93,31.82,10.25,7.34,20.81,6.67,31.26,1.19,8.05-4.22,15.82-9.05,23.37-14.13,29.98-20.16,55.59-45.31,80.32-71.39,8.4-8.86,10.98-19.45,9.19-31.53-1.46-9.84-5.64-19.01-6.22-30.34Z"/>
  <path class="cls-9" d="M1112.39,1468.68c6.53.06,12.58-2.62,18.99-3.36,2.26-.26,4.47-.49,6.72-.41-4.26,31.23-9.04,62.4-12.63,93.71-3,26.22-2.69,52.6-.46,78.93.31,3.61,1.29,4.12,4.74,2.72,8.55-3.48,17.4-4.03,26.15-.52,10.49,4.21,14.36,15.67,8.71,25.42-7.27,12.53-29.28,23-43.73,21.01-8.77-1.21-14.15-6.01-16.34-14.46-3.34-12.92-5.7-26.06-6.73-39.35-3.46-44.92,1.4-89.33,9.04-133.52,1.74-10.08,3.69-20.13,5.54-30.19Z"/>
  <path class="cls-9" d="M852.03,1507.81c5.41-5.31,12.79-4.32,19.32-5.73,6.86-1.48,14-1.66,20.99-2.57,2.62-.34,4.08.3,4.12,3.11-.66.05-1.31.1-1.97.16-.79-1.17-1.42-.87-1.96.21-3.05,1.42-6.4,1.06-9.59,1.42-3.26.36-4.3,1.88-4.85,4.77-4.89,25.41-8.42,50.99-10.05,76.82-1.57,25.01-5.09,49.81-8.11,74.66-.41,3.39-1.98,7.52-.63,10.01,1.56,2.87,5.76-.14,8.88.13,3.76.32,7.47.67,10.97,2.03,13.14,5.06,15.92,20.22,5.25,29.46-8.33,7.21-18.62,8.77-29.19,9.02-1.94.04-3.9-.23-5.84-.46-12.56-1.45-19.65-10.16-18.75-22.83,1.4-19.8,3.75-39.51,6.46-59.16,2.74-19.84,3.79-39.83,5.56-59.75,1.62-18.16,4.13-36.18,8.26-53.95.54-2.34.92-4.66.81-7.05,0,0,.29-.28.29-.28Z"/>
  <path class="cls-11" d="M690.16,1493.26c7.91,2.87,15.82,5.75,23.73,8.62-8.31-1.76-16.56-3.69-23.73-8.62Z"/>
  <path class="cls-11" d="M792.11,1509.36c6.53-.66,13.07-1.74,19.5.68-6.5-.23-13-.45-19.5-.68Z"/>
  <path class="cls-11" d="M719.82,1503.58c5.04-.32,9.84.88,14.6,2.31-5.05.4-9.87-.65-14.6-2.31Z"/>
  <path class="cls-11" d="M736.82,1506.03c4.12.18,8.4-1.52,12.29,1.14-4.11-.25-8.29.26-12.29-1.14Z"/>
  <path class="cls-11" d="M762.89,1508.18c3.25-.56,6.5-1.2,9.6.59-3.24.46-6.46.49-9.6-.59Z"/>
  <path class="cls-11" d="M831.01,1509.95c3.06-2.24,6.38-1.25,9.65-.75-3.17.87-6.38,1.27-9.65.75Z"/>
  <path class="cls-11" d="M752.07,1507.42c2.67-.83,5.33-1.49,7.79.59-2.65.48-5.21-.11-7.79-.59Z"/>
  <path class="cls-11" d="M852.03,1507.81s-.29.28-.29.28c-2.62.87-5.28,1.28-8.04.88,2.51-2.3,5.54-.9,8.33-1.17Z"/>
  <path class="cls-11" d="M685.56,1490.2c1.13-.05,1.86.4,2.01,1.59-.93-.2-1.68-.63-2.01-1.59Z"/>
  <path class="cls-11" d="M715.2,1502.25c1.04-.43,1.97-.38,2.65.65-.99.2-1.92.17-2.65-.65Z"/>
  <path class="cls-6" d="M892.55,1502.99c.54-1.08,1.17-1.38,1.96-.21-.65.07-1.31.14-1.96.21Z"/>
  <path class="cls-11" d="M655.68,1456c1.15.15,1.57.88,1.58,1.95-.87-.37-1.33-1.08-1.58-1.95Z"/>
  <path class="cls-11" d="M658.72,1459.9c1.08.17,1.47.88,1.5,1.89-.87-.33-1.26-1.05-1.5-1.89Z"/>
  <path class="cls-11" d="M665.4,1468.7c1.2.15,1.62.9,1.6,2.02-.88-.4-1.42-1.06-1.6-2.02Z"/>
  <path class="cls-11" d="M669.28,1473.58c1.15.11,1.63.82,1.68,1.9-.89-.35-1.48-.95-1.68-1.9Z"/>
  <path class="cls-12" d="M867,1215.7c-10.34.21-19.92-.45-29.49-1.24-22.12-1.82-36.99-13.91-47.53-32.76-10.97-19.62-19.92-40.15-28.04-61.03-27.11-69.79-46.31-141.98-64.12-214.54-4.95-20.17-8.83-40.7-9.52-61.61-.18-5.35.13-10.74.52-16.08,1.25-17.01,12.6-27.27,25.1-36.5,19.23-14.2,41.57-20.76,64.46-26.31,56.4-13.66,113.6-23.38,170.52-34.38,28.07-5.42,56.44-9.89,84.95-12.11,18.74-1.46,36.84-6.15,55.42-8.11,28.38-2.98,56.69-3.01,84.22,4.87,26.03,7.45,46.31,23.12,58.77,47.74,14.68,29.01,26.92,59.1,38.82,89.31,12.96,32.92,26.55,65.61,37.97,99.11,14.64,42.95,26.96,86.51,32.89,131.64.89,6.74,2.07,13.46,1.79,20.36-.42,10.43-4.26,18.9-12.96,24.93-15.52,10.76-32.73,17.91-50.7,23.3-38.01,11.4-76.99,18.7-115.62,27.52-39.72,9.06-80.24,12.48-120.25,19.35-26.43,4.54-52.91,8.78-79.6,11.33-19.09,1.82-38.13,4.36-57.37,4.33-13.66-.02-27.28,1.82-40.24.87ZM944.42,976.8c1.7-21.97-18.88-41.57-40.72-41.31-23.1.27-41.44,18.38-41.32,41.53.13,23.31,20.06,40.5,41.11,40.87,21.47.37,42.49-19.46,40.93-41.1ZM1081.96,940.07c-1.15,21.29,17.33,41.35,40.71,41.37,22.86.02,41.28-18.23,41.41-40.93.12-23.25-19.62-40.99-40.98-41.46-21.38-.47-42.69,19.92-41.14,41.02ZM1040.92,911.16c-.06,11.25,7.22,19.86,17.3,20.44,9.08.53,15.66-6.52,16.63-17.79.01-.16.03-.32.04-.48.64-10.82-6.47-20.29-15.54-20.68-9.91-.42-18.38,8.08-18.44,18.51ZM967.87,925.69c.17-4.16-.81-8.06-2.92-11.62-3.52-5.93-10.51-9.08-17.04-7.79-6.23,1.22-11.11,6.62-12,13.13-.46,3.36.96,6.37,1.6,9.52,1.8,8.91,8.78,14.7,16.57,13.9,8.27-.85,13.79-7.7,13.8-17.14Z"/>
  <path class="cls-13" d="M715.81,1481.76c-3.03-.88-6.07-1.77-9.11-2.65-.65-.9-1.47-1.39-2.62-1.09-.88-.4-1.77-.8-2.65-1.2-22.68-19.1-38.98-42.87-50.93-69.78-9.53-21.45-14.63-44.38-22.18-66.5-19.71-57.71-33.03-117.12-46.85-176.39,2.09-.26,3.29.95,4.35,2.52,3.17,4.69,6.29,9.42,9.59,14.01,12.6,17.52,27.63,32.92,42.49,48.45,9.54,9.97,20.19,18.67,30.97,27.29,12.03,9.62,24.85,18.01,37.62,26.54,9.07,6.06,18.9,10.72,28.42,15.95,4.74,2.6,8.9,6.76,14.87,6.72-.34.9-.62,1.84-1.04,2.7-16.59,33.85-33.21,67.69-49.79,101.54-1.06,2.17-2.17,4.4-2.72,6.74-1.12,4.81,1.38,9.35,5.74,11.11,4.15,1.67,8.83.21,11.51-3.8,1.26-1.88,2.21-3.97,3.26-5.99,7.75-15,15.49-30,23.23-45,2.14.83,3.02,3.13,5.35,4.01,17.28,6.52,34.23,13.96,51.99,19.16,13.05,3.82,26.07,7.9,39.31,10.93,26.15,5.98,52.67,9.85,79.44,11.96,18.86,1.49,37.74,2.5,56.64,1.58,16.94-.82,33.77-3.26,50.76-3.86,4.06-.14,8.27,0,12.37-.27,3.51-.23,7.37-.88,10.91-.22,6.47,1.21,13.1,1.07,19.51,1.34,16.5.69,33.05.75,49.63-1.74,6.53-.98,13.54-1.53,20.25-2.32,14.71-1.74,29.29-4.48,43.55-8.98,17.45-5.5,35.1-10.25,52.02-17.39,31.85-13.45,61.28-30.86,88.29-52.41,13.6-10.85,25.58-23.38,37.62-35.86,1.22-1.26,2.25-2.24,4.03-2.14,3.15,21.85,2.46,43.15-8.07,63.32-5.77,11.04-14.42,18.85-25.22,24.64-15.68,8.42-32.78,12.8-49.73,17.59-26.86,7.59-53.65,15.4-80.6,22.65-24.02,6.46-48.35,11.78-72.28,18.54-38.41,10.83-77.79,15.94-117.12,21.63-24.78,3.58-49.47,7.78-74.19,11.75-35.17,5.66-70.37,11.63-105.96,13.04-28.08,1.11-56.25-.42-84.3-3.09-8.94-.85-17.71-2.22-26.38-4.41-.53-.6-1.18-.84-1.98-.63Z"/>
  <path class="cls-4" d="M1361.65,1296.73c-1.79-.1-2.82.88-4.03,2.14-12.03,12.48-24.02,25.01-37.62,35.86-27.01,21.55-56.44,38.96-88.29,52.41-16.92,7.15-34.58,11.89-52.02,17.39-14.26,4.5-28.83,7.24-43.55,8.98-6.71.79-13.71,1.34-20.25,2.32-16.58,2.48-33.13,2.42-49.63,1.74-6.41-.27-13.04-.13-19.51-1.34-3.54-.66-7.4-.01-10.91.22-4.1.27-8.3.12-12.37.27-16.99.6-33.82,3.04-50.76,3.86-18.9.91-37.78-.09-56.64-1.58-26.77-2.11-53.28-5.98-79.44-11.96-13.24-3.03-26.26-7.1-39.31-10.93-17.76-5.2-34.71-12.64-51.99-19.16-2.33-.88-3.21-3.18-5.35-4.01,9.27-19.18,18.55-38.35,27.82-57.53,2.51-.62,4.24,1.29,6.33,2,18.05,6.16,35.89,12.82,54.57,17.2,12.62,2.96,25.4,4.59,38.03,7.2,12.14,2.51,24.1,5.61,35.17,11.47,3.09,1.63,5.19,4.52,9.06,5.37,9.17,2.02,18.31,2.27,27.62,1.78,8.52-.45,17.1.13,25.61-.36,8.04-.46,16.02-1.8,24.04-2.61,17.21-1.75,34.16-4.93,51.01-8.79,8.95-2.05,17.55-6.33,26.8-6.08,8.51.23,16.66-1.8,24.71-3.29,11.45-2.11,23.17-.79,34.5-4.13,6.48-1.91,13.1-2.95,19.18-6.3,10.06-5.55,20.09-11.1,29.97-16.98,9.21-5.48,18.19-11.25,26.74-17.61,16.15-12.03,31.6-24.97,46.01-39.08,10.67-10.45,21.99-20.3,30.67-32.62,2.33-3.31,4.84-6.43,7.43-9.55,4.42-5.33,8.26-11.16,12.13-16.93,5.42-8.06,5.05-17.77,7.22-26.75.29-1.22.22-2.64-1.14-3.47,15.22-6.2,30.06-13.09,43.08-23.35.89.02,1.77.03,2.66.05.1,3.26.2,6.53.3,9.79-1.29,1.34-1.3,2.64.13,3.89-.25,7.54,1.03,14.94,2.08,22.36-1.49.98-1.09,1.61.38,2.03.22,3.55.43,7.09.65,10.64-1.54.99-1.17,1.63.37,2.06.19,2.9.37,5.8.56,8.7-1.5.98-1.1,1.61.38,2.04.19,2.58.37,5.16.56,7.75-1.49,1.01-1.01,1.62.42,2.02.19,2.58.38,5.16.57,7.74-1.49,1.01-1.04,1.62.41,2.02.22,2.89.43,5.79.65,8.68-1.55.99-1.19,1.63.37,2.06.18,2.9.36,5.81.54,8.71-1.49.99-1.08,1.61.39,2.03.22,2.89.43,5.79.65,8.68-1.65,1.28-1.74,2.33.45,3.04.15,2.58.31,5.16.46,7.74-1.57,1.26-1.63,2.3.45,3.01.2,4.19.41,8.38.61,12.57-1.7,1.82-2.28,3.55.41,5,.19,1.96.39,3.93.58,5.89.02,1.9.05,3.81.07,5.71Z"/>
  <path class="cls-3" d="M548.75,1006.9c-18.33-15.79-34.7-33.3-47.33-54.08-28.52-46.93-54.28-95.15-69.98-148.15-9.73-32.83-15.4-66.29-13.12-100.52,2.25-33.74,12.35-65.06,36.88-89.55,23.41-23.37,41.05-21.36,62.58,5.34,8.77,10.88,11.64,24.51,14.41,37.94,1.62,7.84,2.25,15.75,2.15,23.75-.03,1.94.05,3.91.34,5.83.74,4.99,3.38,8.59,8.52,9.39,4.94.77,8.38-1.86,10.7-6.04,2.61-4.68,4.54-9.75,7.92-13.98,1.98-2.48,3.59-6.39,7.17-5.82,4.04.65,5.51,4.65,6.58,8.34,3.42,11.77,3.26,23.8,2.1,35.81-1.89,19.6-6.1,38.81-10.13,58.05-4.1,19.55-4.41,39.33-3.25,59.22,1.33,22.89,3.15,45.69,7.09,68.31,3.87,22.2,9.92,43.69,19.72,64.04-2.84.45-5.51,1.57-8.23,2.32-8.97,2.48-13.13,10.79-20.08,15.63-2.28,1.59-3.24,4.21-4.47,6.71-2.92,5.94-3.39,13.3-9.58,17.45Z"/>
  <path class="cls-5" d="M749.79,1305.63c-5.97.04-10.13-4.11-14.87-6.72-9.52-5.23-19.35-9.89-28.42-15.95-12.77-8.53-25.59-16.92-37.62-26.54-10.78-8.61-21.43-17.31-30.97-27.29-14.86-15.53-29.89-30.93-42.49-48.45-3.3-4.59-6.42-9.32-9.59-14.01-1.06-1.57-2.27-2.78-4.35-2.52-5.07-17.86-8.47-36.11-12.77-54.15-5.14-21.6-10.06-43.24-13.65-65.16-.28-1.73-.94-3.47-.32-5.25,1.19-.35,1.85.51,2.57,1.09,20.84,16.64,44.3,28.73,68.54,39.46.43.19.79.53,1.18.8-.32,2.68.55,5.02,1.64,7.47,3.8,8.55,8.23,16.74,13.88,24.19,5.55,7.31,10.18,15.25,16.01,22.4,3.54,4.33,8.04,8.19,10.44,13.08,3.22,6.55,9.11,10.44,13.65,15.48,3.98,4.42,9.1,8.2,13.48,12.53,7.57,7.48,16.02,13.84,24.4,20.35,5.58,4.33,12.84,6.3,17.16,12.22,3.59,4.92,10.07,4.8,14.3,8.63,4.44,4.02,9.66,6.83,15.51,8.36,2.55.67,4.87,1.73,6.57,3.89,1.03,1.31,2.5,2.05,4.04,2.63,6.13,2.29,12.55,4.02,18.31,7.01,8.09,4.2,17.17,5.33,25.29,9.04,5.09,2.33,11.02,1.45,15.59,4.74,1.86,1.34,3.61,2.23,5.78,1.85,6.03-1.05,9.92,2.37,14.08,5.96,6.09,5.26,10.93,13.14,20.95,11.29.71-.13,1.61.31,2.31.69,3.18,1.73,6.3,3.05,10.11,1.73,1.39-.48,3.19.15,4.79.31,5.04.5,10.1,1.52,15.13,1.41,7.25-.15,14.45-.12,21.62.83,1.24.16,2.27.04,3.11-.86,2.53-2.7,5.73-2.11,8.67-1.39,2.93.72,5.87.88,8.7.42,10.31-1.68,20.54-3.83,30.85-5.47,5.16-.82,10.48-3.02,15.61-1.06,4.22,1.6,8.7,2.34,12.79,4.44,1.64.84,4.2,2.21,6.04.94,5.91-4.09,13.15-3.7,19.63-6.03,19.74-7.11,36.37-19.54,54.15-29.85,9.67-5.61,18.4-13.67,25.84-22.47,1.54-1.83,4.04-3.54,3.63-6.61,22.7-4.59,45.41-9.15,68.1-13.79,10.16-2.08,20.28-4.32,30.42-6.48.15,4.81-4.01,6.84-6.52,9.84-8.98,10.75-17.94,21.53-27.35,31.91-6.73,7.43-13.94,14.44-21.67,20.92-10.17,8.52-20.91,16.24-31.9,23.62-5.64,3.79-11.93,6.61-17.53,10.44-8.36,5.71-17.59,9.72-26.57,14.15-9.42,4.64-19.66,7.71-29,12.36-11.86,5.89-23.77,5.31-35.91,3.56-7.85-1.13-15.34-2.83-23.41-.55-6.77,1.91-13.99,2.25-21.02,3.24-13.71,1.92-27.59,1.89-41.31,3.35-14.34,1.52-28.49-.52-42.72-.66-4.32-.04-9.16-.02-13.24-2.44-7.35-4.36-15.55-7.22-22.24-12.71-2.09-1.71-4.57-2.56-7.1-3.03-12.68-2.37-25.13-5.61-37.6-8.9-10.86-2.86-21.07-7.39-31.67-10.88,2.79-6.02,5.58-12.04,8.38-18.05,1.71-3.67,3.83-7.16,4.76-11.15,1.12-4.79-.91-9.23-4.96-10.94-4.21-1.79-8.57-.24-11.27,4.02-.52.82-.96,1.69-1.4,2.56-7.19,14.15-14.38,28.31-21.57,42.46-2.32,4.57-4.66,9.12-6.99,13.68Z"/>
  <path class="cls-7" d="M1121.08,1209.11c.41,3.07-2.08,4.78-3.63,6.61-7.45,8.8-16.18,16.86-25.84,22.47-17.78,10.31-34.41,22.74-54.15,29.85-6.49,2.33-13.72,1.94-19.63,6.03-1.84,1.27-4.39-.1-6.04-.94-4.09-2.1-8.58-2.83-12.79-4.44-5.13-1.95-10.45.24-15.61,1.06-10.31,1.64-20.54,3.79-30.85,5.47-2.83.46-5.76.3-8.7-.42-2.93-.72-6.13-1.3-8.67,1.39-.84.9-1.87,1.03-3.11.86-7.18-.95-14.38-.98-21.62-.83-5.03.11-10.08-.91-15.13-1.41-1.61-.16-3.4-.8-4.79-.31-3.81,1.32-6.93,0-10.11-1.73-.7-.38-1.6-.82-2.31-.69-10.02,1.85-14.86-6.03-20.95-11.29-4.15-3.59-8.05-7-14.08-5.96-2.17.38-3.91-.51-5.78-1.85-4.57-3.29-10.5-2.42-15.59-4.74-8.12-3.71-17.2-4.84-25.29-9.04-5.76-2.99-12.18-4.72-18.31-7.01-1.54-.58-3.01-1.31-4.04-2.63-1.7-2.16-4.02-3.22-6.57-3.89-5.85-1.53-11.07-4.34-15.51-8.36-4.23-3.83-10.71-3.71-14.3-8.63-4.32-5.92-11.58-7.89-17.16-12.22-8.39-6.51-16.84-12.87-24.4-20.35-4.37-4.32-9.5-8.11-13.48-12.53-4.54-5.04-10.43-8.94-13.65-15.48-2.4-4.89-6.91-8.75-10.44-13.08-5.84-7.15-10.46-15.09-16.01-22.4-5.65-7.45-10.07-15.64-13.88-24.19-1.09-2.45-1.96-4.79-1.64-7.47,3.69,1.22,7.35,2.52,11.06,3.64,6.55,1.98,11.48-.22,13.47-5.88,1.82-5.18-.73-10.41-6.94-12.53-21.03-7.17-40.23-18.02-59.1-29.42-13.59-8.21-25.31-18.92-36.77-29.87,6.18-4.15,6.65-11.51,9.58-17.45,1.23-2.51,2.2-5.13,4.47-6.71,6.95-4.85,11.1-13.15,20.08-15.63,2.72-.75,5.39-1.87,8.23-2.32,9.46,17.33,22.29,31.92,36.76,45.18,5.01,4.59,10.69,8.26,16.78,11.2,5.27,2.55,10.95.97,13.22-3.38,2.44-4.67.64-8.97-5.06-12.35-17.28-10.28-29.13-25.68-39.65-42.28-5.41-8.55-9.39-17.8-12.69-27.36-.75-2.17-.94-3.92.52-5.89,17.15-23.31,32.55-47.88,50.49-70.63,4.79-6.08,9.93-11.89,15.71-18.77.89,8.53,1.42,15.75,2.43,22.9,5.14,36.12,13.69,71.49,23.57,106.58,11.5,40.8,22.51,81.77,36.36,121.84,11.88,34.41,24.92,68.47,43.27,100.08,8.87,15.27,19.32,29.32,36.92,36.1,11.22,4.32,22.76,6.52,34.64,7.33,27.98,1.91,55.91-.36,83.86-.97,13.36-.29,26.59-2.04,39.88-3.08,10.79-.84,21.6-2.05,32.26-3.91,12.52-2.19,25.22-3.32,37.61-5.98,25.82-5.53,52.01-8.28,78.14-11.62,1.06,1.54,1.65,1,2.03-.46.98-.07,1.95-.13,2.93-.2Z"/>
  <path class="cls-3" d="M1567.8,685.52c-1.38,34.91-6.72,69.27-16.96,102.63-11.08,36.1-24.31,71.48-44.13,103.92-13.85,22.67-30.27,43.5-47.16,63.94-6.73,8.14-13.93,15.9-20.87,23.87-14.8,17.01-33.74,28.97-51.56,42.28-8.85,6.62-18.15,12.63-27.15,19.06-2.99,2.14-4.56,2.38-5.33-1.9-2.97-16.32-7.59-32.25-12.1-48.19-.67-2.38-.7-3.7,1.78-5.08,30.47-16.86,52.8-41.67,67.73-72.73,15.37-31.97,24.96-65.77,28.59-101.24,2.9-28.39-1.73-56.05-6.52-83.79-3.23-18.71-8.05-37.2-8.21-56.34-.04-5.53.77-11.01,2.18-16.38.92-3.48,2.63-4.19,5.44-1.66,5.75,5.18,10.4,11.17,13.69,18.2,1.17,2.5,2.25,5.08,3.71,7.4,2.26,3.59,5.65,5.48,9.94,4.76,4.85-.82,7.55-4.12,8.85-8.71,1.57-5.54,1.01-11.3,1.68-16.95,2.55-21.67,14.17-38.47,28.38-53.82,7.48-8.08,16.41-9.57,27.09-5.42,15.79,6.13,26.36,16.49,32.01,32.5,6.13,17.41,9.05,35.21,8.94,53.64Z"/>
  <path class="cls-15" d="M782.84,1283.06c10.6,3.49,20.81,8.01,31.67,10.88,12.47,3.29,24.92,6.53,37.6,8.9,2.53.47,5.01,1.31,7.1,3.03,6.69,5.49,14.89,8.35,22.24,12.71,4.08,2.42,8.92,2.4,13.24,2.44,14.23.14,28.38,2.18,42.72.66,13.72-1.45,27.6-1.42,41.31-3.35,7.03-.99,14.25-1.33,21.02-3.24,8.07-2.28,15.56-.58,23.41.55,12.14,1.75,24.05,2.33,35.91-3.56,9.35-4.65,19.59-7.71,29-12.36,8.98-4.43,18.21-8.44,26.57-14.15,5.61-3.83,11.9-6.65,17.53-10.44,10.99-7.38,21.73-15.1,31.9-23.62,7.73-6.48,14.93-13.49,21.67-20.92,9.4-10.38,18.37-21.16,27.35-31.91,2.51-3,6.67-5.04,6.52-9.84,17.38-4.34,34.82-8.46,52.12-13.1,10.69-2.87,21.17-6.55,31.75-9.86,1.36.83,1.43,2.26,1.14,3.47-2.17,8.98-1.8,18.69-7.22,26.75-3.87,5.76-7.71,11.6-12.13,16.93-2.59,3.12-5.1,6.24-7.43,9.55-8.68,12.31-20,22.17-30.67,32.62-14.41,14.1-29.85,27.04-46.01,39.08-8.54,6.37-17.53,12.14-26.74,17.61-9.88,5.88-19.91,11.43-29.97,16.98-6.08,3.35-12.71,4.39-19.18,6.3-11.34,3.34-23.05,2.02-34.5,4.13-8.05,1.48-16.2,3.52-24.71,3.29-9.26-.25-17.86,4.03-26.8,6.08-16.85,3.87-33.8,7.04-51.01,8.79-8.02.82-16,2.15-24.04,2.61-8.52.49-17.09-.09-25.61.36-9.31.49-18.45.25-27.62-1.78-3.87-.85-5.96-3.74-9.06-5.37-11.06-5.85-23.03-8.96-35.17-11.47-12.63-2.61-25.41-4.24-38.03-7.2-18.69-4.38-36.52-11.04-54.57-17.2-2.09-.71-3.81-2.62-6.33-2,4.48-11.03,9.58-21.77,15.03-32.35Z"/>
  <path class="cls-13" d="M1360.99,1285.13c-2.69-1.46-2.11-3.18-.41-5,.82,1.61.59,3.31.41,5Z"/>
  <path class="cls-13" d="M1349.63,1156.26c-1.42-1.25-1.41-2.55-.13-3.89.46,1.28,1.49,2.55.13,3.89Z"/>
  <path class="cls-13" d="M1359.05,1256.81c-2.19-.71-2.09-1.76-.45-3.04.72.93.64,1.98.45,3.04Z"/>
  <path class="cls-13" d="M1359.97,1267.55c-2.08-.71-2.02-1.74-.45-3.01.76.91.65,1.95.45,3.01Z"/>
  <path class="cls-13" d="M1349.2,1142.57c-.88-.02-1.77-.03-2.66-.05.54-.79,1.13-1.68,2.18-1.51.71.12.62.94.48,1.56Z"/>
  <path class="cls-13" d="M1357.96,1245.09c-1.47-.42-1.88-1.04-.39-2.03.59.59.6,1.29.39,2.03Z"/>
  <path class="cls-13" d="M1357.03,1234.35c-1.56-.43-1.91-1.08-.37-2.06.12.69.24,1.38.37,2.06Z"/>
  <path class="cls-13" d="M1356.01,1223.61c-1.45-.41-1.91-1.02-.41-2.02.61.58.61,1.28.41,2.02Z"/>
  <path class="cls-13" d="M1355.03,1213.85c-1.43-.4-1.91-1.01-.42-2.02.6.58.63,1.27.42,2.02Z"/>
  <path class="cls-13" d="M1352.09,1180.65c-1.47-.42-1.87-1.05-.38-2.03.59.59.6,1.29.38,2.03Z"/>
  <path class="cls-5" d="M1118.15,1209.31c-.38,1.46-.97,2-2.03.46.57-.62,1.28-.63,2.03-.46Z"/>
  <path class="cls-13" d="M1354.06,1204.08c-1.48-.42-1.88-1.05-.38-2.04.59.59.6,1.29.38,2.04Z"/>
  <path class="cls-13" d="M1353.12,1193.34c-1.54-.43-1.91-1.07-.37-2.06.57.61.58,1.31.37,2.06Z"/>
  <path class="cls-14" d="M704.09,1478.03c1.15-.3,1.97.18,2.62,1.09-1.18.38-2.17.3-2.62-1.09Z"/>
  <path class="cls-14" d="M715.81,1481.76c.79-.21,1.44.03,1.98.63-1.17,1.4-1.64.61-1.98-.63Z"/>
  <path class="cls-8" d="M1464.07,418.67c-.36,5.67-2.84,11.65-5.85,17.45-7.73,14.94-17.93,28.26-27.91,41.66-11.94,16.03-22.05,33.36-34.76,48.82-1.85,2.25-3.96,4.29-6.05,6.33-4.56,4.44-9.75,5.21-15.72,2.98-11.41-4.26-21.32-11.08-31.14-18.01-16.45-11.62-32.76-23.45-49.02-35.34-9.45-6.92-18.2-14.69-26.45-23.01-3.32-3.34-3.3-7.18-1.87-11.29,5.04-14.43,13.23-27.16,21.8-39.6,14.57-21.13,29.48-42.03,44.37-62.94,3.48-4.88,7.17-9.64,12-13.36,5.64-4.35,11.72-5.18,17.7-1.39,9.87,6.25,19.53,12.84,29.11,19.53,22.91,15.99,46.29,31.38,66,51.48,5.38,5.49,7.83,10.31,7.79,16.69ZM1333.89,428.18c-.35,7.23,1.22,14.19,3.26,20.97,2.01,6.68,5.19,12.75,13.32,13.61,3.05.32,6.06.18,9.15-.5,3.07-.68,7.72-2.37,6.66,4.23-.11.68.51,1.5.83,2.23,4.19,9.4,16.31,13.43,26.51,8.84,19.8-8.91,31.14-34.09,25.53-55.2-4.57-17.17-16.04-28.44-30.2-37.65-24.44-15.88-53.4-11.08-70.46,12.36-12.46,17.12-15.21,38.55-3.31,57.76,11.06,17.85,27.78,28.54,46.8,36.06,2.78,1.1,6.49,1.38,7.85-2.53,1.29-3.68-.53-6.23-4.08-7.61-10.78-4.2-20.62-9.93-29.47-17.45-12.55-10.66-21.42-26.91-15.98-46.04,6.26-21.98,28.18-35.46,49.6-29.31,11.7,3.36,21.36,10.3,29.44,19.63,12.63,14.57,14.31,34.03,2.22,50.16-3.86,5.15-8.62,8.72-14.7,10.6-3.91,1.21-8.95-.43-9.72-3.32-1.2-4.47,1.1-6.76,5.21-8.35,3.73-1.44,7.33-3.45,10.63-5.73,12.28-8.46,13.05-22.09,1.75-30.08-5.75-4.07-12.38-3.3-18.79-2.34-2.32.35-2.76-.01-2.99-2.15-.42-3.83-.97-7.66-2.63-11.23-5.8-12.45-18.37-14.83-27.77-4.92-7.39,7.79-8.35,17.84-8.67,27.95Z"/>
  <path class="cls-8" d="M1496.26,481.46c.29,7.82-3,14.19-6.29,20.57-10.56,20.52-25.28,38.17-39.12,56.41-11.7,15.42-24.32,30.1-38.51,43.31-4.72,4.39-9.48,9.03-16.12,10.57-7.77,1.8-15.2.55-22.26-2.95-21.03-10.41-41.29-22.07-59.5-37.01-11.18-9.17-22.2-18.53-33.32-27.77-4.86-4.04-9.56-8.19-14.11-12.61-11.27-10.95-13.28-23.97-10.86-38.54,1.12-6.72,3.33-13.25,3.45-20.14.01-.77-.12-1.78.85-2.07,1.38-.41,1.99.86,2.75,1.6,7.78,7.67,16.13,14.69,25.06,20.92,22.51,15.71,43.96,32.94,67.51,47.16,4.75,2.87,9.81,5.1,15.04,6.9,10.61,3.66,19.83,1.2,27.73-6.59,8.75-8.61,15.48-18.77,22.41-28.8,11.09-16.04,22.49-31.86,33.8-47.74,6.62-9.29,12.57-18.96,17.36-29.33.57-1.23.66-3.31,2.4-3.25,1.62.05,1.85,2.05,2.5,3.29,4.86,9.38,9.76,18.74,14.46,28.2,2.83,5.7,5.17,11.61,4.76,17.86ZM1378.76,564c1.44,11.11,2.78,22.23,4.37,33.31.49,3.4,2.57,5.71,6.4,5.23,3.83-.48,5.25-3.18,4.84-6.64-1.42-11.92-2.98-23.83-4.6-35.73-.34-2.48-1.85-4.2-4.55-4.27-2.47-.06-4.37,1-5.49,3.32-.73,1.52-.84,3.12-.98,4.78Z"/>
  <path class="cls-1" d="M1037.02,351.56c1.13-12.21,4.47-27.26,8.67-42.13,6.58-23.3,13.27-46.57,19.98-69.84,1.35-4.68,2.96-9.3,5.29-13.62,4.99-9.26,10.73-12.07,20.93-9.34,21.03,5.62,41.96,11.61,62.95,17.35,15.25,4.17,30.01,9.66,44.29,16.4,15.19,7.17,18.75,14.44,16.29,31.24-2.41,16.49-7.53,32.25-12.14,48.16-5.37,18.57-10.4,37.25-16.14,55.71-6.06,19.5-11.5,22.39-31.68,18.59-14.41-2.71-28.34-7.24-42.34-11.42-21.94-6.56-44.27-11.92-65.24-21.49-9.87-4.5-10.99-5.72-10.87-19.62ZM1123.71,265.43c-2.61.23-5.09.2-7.45.69-17.89,3.68-28.28,15.21-32.57,32.38-4.22,16.85-1.01,31.98,13.36,42.96,11.48,8.77,24.47,12.58,38.92,8.17,4.39-1.34,8.32-3.52,11.32-7.11,3.18-3.81,2.79-7.75-.58-11.74-3.34-3.96-6.07-4.17-9.98-.46-2.42,2.3-5.88,3.7-9.6,3.88-15.96.8-26.89-10.62-25.58-26.86.93-11.6,9.54-22.24,19.57-24.06,10.55-1.91,22.73,3.7,26.33,14.53.79,2.38,2.33,2.73,4.54,2.49,7.59-.84,11.15-6.22,8.73-13.48-.99-2.95-2.56-5.61-4.72-7.89-8.82-9.3-20.02-12.82-32.27-13.5Z"/>
  <path class="cls-1" d="M1267.86,325.07c-1.01,15.84-4.81,31.12-9.6,46.17-8.14,25.56-16.04,51.21-27.66,75.51-2.88,6.03-5.85,12.03-9.82,17.37-7.63,10.27-18.4,11.41-30.21,10.24-37.86-3.74-72.92-17.12-108.03-30.53-8.09-3.09-16.11-6.2-23.23-11.03-10.49-7.1-14.21-18.18-16.21-30.03-1.02-6.08-1.16-12.29-2.99-18.25-.82-2.68.51-3.28,2.84-2.25,29.88,13.2,61.76,20.19,92.84,29.64,11.65,3.54,23.57,6.16,35.95,5.4,10.33-.64,17.21-6.08,21.67-15.05,5.69-11.44,8.72-23.75,12.1-35.99,5.71-20.68,11.86-41.23,17.7-61.87,2.57-9.09,4.12-18.39,5-27.79.17-1.81.24-4.39,2.87-1.8,9.75,9.55,20.51,18.07,29.26,28.64,5.19,6.27,7.89,13.39,7.52,21.61ZM1208.48,457.73c-.26-.84-.42-1.83-.84-2.69-5.3-10.74-11.27-21.15-16.15-32.11-.99-2.22-3.16-3.34-5.71-2.54-2.34.73-3.83,2.36-4.07,4.92-.22,2.35.49,4.45,1.53,6.52,4.37,8.69,8.67,17.41,13.06,26.09.79,1.57,1.73,3.16,2.94,4.4,1.77,1.83,4.01,1.88,6.28.75,2.17-1.08,2.74-3.05,2.97-5.33Z"/>
  <path class="cls-1" d="M790.88,268.07c-.6-10.21,5.05-16.3,13.36-20.83,20.1-10.94,41.54-18.54,63.19-25.61,14.66-4.79,29.28-9.72,44.03-14.24,11.5-3.53,17.61-.67,23.07,10.08,5.4,10.64,8.41,22.17,12.29,33.36,6.22,17.96,12.47,35.93,18.16,54.06,4.23,13.46,8.27,27.04,8.79,41.34.2,5.33-1.92,8.79-6.65,11.32-18.59,9.95-38.5,16.57-58.36,23.31-15.85,5.38-31.49,11.38-47.67,15.76-5.52,1.49-11.14,2.31-16.8,2.78-5.62.47-10.13-1.63-13.24-6.54-6.54-10.3-9.87-21.92-13.39-33.38-5.73-18.65-12.68-36.88-18.77-55.4-3.87-11.74-7.42-23.56-8.01-36.01ZM897.01,341.86c9.09-.13,12.98-5.39,10.43-13.78-.28-.93-.6-1.85-.91-2.78-5.01-14.94-9.82-29.95-15.14-44.79-1.73-4.82-.43-6.66,4.13-7.89,4.22-1.13,8.33-2.76,12.34-4.53,5.62-2.48,7.09-6.04,5.11-11.26-1.76-4.63-5-6.11-10.75-4.3-6.5,2.05-12.89,4.47-19.31,6.79-11.46,4.15-22.95,8.21-34.32,12.59-6.19,2.38-7.95,6.24-5.9,11.29,1.97,4.86,5.66,6.22,11.69,4.2,4.31-1.45,8.64-2.89,12.85-4.6,2.96-1.2,4.37-.54,5.34,2.56,2.27,7.29,4.86,14.48,7.3,21.72,3.12,9.23,6.17,18.49,9.33,27.7,1.32,3.84,3.09,7.32,7.8,7.06Z"/>
  <path class="cls-1" d="M816.38,470.55c-9.03-1.13-17.25-3.64-22.8-11.99-10.24-15.4-18.04-32.02-24.89-49.08-9.03-22.47-18.43-44.84-24.1-68.5-1.25-5.21-2.44-10.48-3.06-15.79-1.13-9.74,2.06-18.27,8.35-25.69,7.9-9.32,16.69-17.79,25.19-26.53,2.31-2.37,3.59-1.8,4.01,1.26,3.72,27.19,15.4,51.97,23.57,77.81,3.72,11.77,6.86,23.75,11.86,35.09.72,1.64,1.41,3.29,2.19,4.9,8.28,17.21,17.7,21.93,36.61,18.69,15.16-2.59,29.47-7.99,43.87-13.06,21.61-7.62,43.68-14.01,64.5-23.78,2.65-1.24,5.25-2.6,7.86-3.92.73-.37,1.48-.94,2.25-.45.83.53.49,1.41.3,2.2-2.36,9.66-1.78,19.72-4.17,29.4-2.66,10.76-8.52,19.15-18.35,23.98-33.27,16.36-66.95,31.8-103.32,40.17-9.8,2.26-19.69,4.28-29.84,5.29ZM832.75,421.83c-.34-3.39-1.34-5.73-4.28-6.48-2.66-.69-4.9.19-6.06,2.78-4.76,10.65-9.52,21.3-14.12,32.01-1.44,3.36-1.68,6.98,2.41,8.71,4.24,1.79,6.67-.83,8.26-4.46,4.23-9.65,8.46-19.29,12.65-28.96.57-1.31.87-2.75,1.13-3.6Z"/>
  <path class="cls-1" d="M531.01,422.41c.17-4.83,1.82-9.18,5.01-12.88,10.21-11.85,21.25-22.87,33.31-32.86,18.03-14.94,36.43-29.41,55.01-43.65,10.48-8.04,17.17-7.56,26.61,1.61,10.08,9.79,18.07,21.33,26.88,32.18,16.29,20.07,33.39,39.53,47.07,61.59.34.55.7,1.09,1.05,1.64,9.62,15.18,9.32,18.14-3.06,31.01-15.16,15.77-32.75,28.73-49.54,42.6-11.4,9.41-22.48,19.29-35.11,27.11-16.01,9.91-21.59,9.43-33.79-5-14.69-17.38-28.64-35.38-43.02-53.03-9.25-11.35-18.74-22.51-25.7-35.52-2.47-4.61-4.51-9.39-4.73-14.81ZM658.72,431.46c.1,3.58-.37,6.79-1.98,9.71-4.49,8.13-11.12,13.08-20.64,13.36-10.82.32-18.09-5.51-23.23-14.32-5.08-8.7-5.82-17.74.56-26.07,6.24-8.15,14.68-11.54,24.97-9.1,1.7.4,3.01.55,4.33-1.01,4.38-5.18,3.06-12.24-3.06-15.19-3.6-1.74-7.42-2.21-11.41-1.68-33.48,4.42-49.1,41.05-28.74,67.9,10.02,13.21,23.2,20.62,40.22,17.46,16.14-2.99,27.69-12.41,33.82-27.83,2.03-5.1,2.39-10.52-.61-15.54-2.28-3.81-6.26-4.72-11.19-3.29-3.32.96-3.97,2.91-3.06,5.6Z"/>
  <path class="cls-1" d="M738.42,462.32c.58,11.33,4.75,20.5,6.22,30.34,1.79,12.07-.79,22.67-9.19,31.53-24.73,26.08-50.34,51.22-80.32,71.39-7.55,5.08-15.32,9.9-23.37,14.13-10.45,5.48-21,6.15-31.26-1.19-12.91-9.24-24.18-20.29-34.93-31.82-15.97-17.12-31.6-34.57-45.59-53.38-4.16-5.6-7.82-11.59-11.54-17.5-6.1-9.69-7.34-20.01-3.41-30.83,4.28-11.78,9.78-23.04,14.87-34.46.64-1.44,1.73-4.19,3.41-.82,7.88,15.71,19.23,28.92,30.19,42.44,13.51,16.67,26.88,33.46,40.41,50.11,3.18,3.91,6.87,7.35,10.74,10.61,9.44,7.94,19.54,8.56,30.44,3.35,11.26-5.38,21.13-12.79,30.64-20.7,19.63-16.32,40.07-31.67,58.73-49.13,4.48-4.2,8.67-8.71,13.96-14.06ZM625.1,570.69c-.05,0-.11,0-.16-.01,0-3.08.34-6.2-.09-9.22-.46-3.24-2.66-5.19-6.15-4.93-3.15.24-4.33,2.28-4.52,5.28-.73,11.32-1.6,22.63-2.33,33.94-.24,3.75.84,7.1,5.11,7.51,4.26.4,5.96-2.45,6.23-6.4.61-8.73,1.27-17.45,1.9-26.18Z"/>
  <path class="cls-2" d="M944.42,976.8c1.56,21.64-19.46,41.47-40.93,41.1-21.05-.37-40.98-17.56-41.11-40.87-.12-23.16,18.21-41.26,41.32-41.53,21.84-.26,42.42,19.34,40.72,41.31Z"/>
  <path class="cls-2" d="M1081.96,940.07c-1.55-21.1,19.76-41.5,41.14-41.02,21.36.47,41.1,18.21,40.98,41.46-.12,22.7-18.55,40.95-41.41,40.93-23.39-.02-41.86-20.08-40.71-41.37Z"/>
  <path class="cls-14" d="M1040.92,911.16c.06-10.43,8.52-18.94,18.44-18.51,9.07.39,16.18,9.85,15.54,20.68,0,.16-.03.32-.04.48-.97,11.27-7.56,18.32-16.63,17.79-10.08-.58-17.36-9.19-17.3-20.44Z"/>
  <path class="cls-14" d="M967.88,925.69c-.01,9.43-5.53,16.29-13.8,17.14-7.79.8-14.78-4.99-16.57-13.9-.63-3.15-2.06-6.16-1.6-9.52.89-6.51,5.77-11.9,12-13.13,6.53-1.28,13.52,1.86,17.04,7.79,2.12,3.56,3.09,7.46,2.93,11.62Z"/>
  <path class="cls-14" d="M782.84,1283.06c-5.46,10.58-10.55,21.32-15.03,32.35-9.27,19.18-18.55,38.35-27.82,57.53-7.74,15-15.48,30.01-23.23,45-1.04,2.02-2,4.11-3.26,5.99-2.68,4-7.36,5.47-11.51,3.8-4.36-1.76-6.86-6.29-5.74-11.11.54-2.33,1.65-4.56,2.72-6.74,16.58-33.86,33.2-67.69,49.79-101.54.42-.86.7-1.8,1.04-2.7,2.33-4.56,4.67-9.12,6.99-13.68,7.19-14.15,14.38-28.31,21.57-42.46.44-.87.88-1.74,1.4-2.56,2.7-4.26,7.06-5.81,11.27-4.02,4.05,1.72,6.08,6.15,4.96,10.94-.93,3.99-3.06,7.48-4.76,11.15-2.8,6.01-5.59,12.03-8.38,18.05Z"/>
  <path class="cls-10" d="M1333.89,428.18c.31-10.11,1.27-20.15,8.67-27.95,9.4-9.91,21.97-7.53,27.77,4.92,1.66,3.57,2.21,7.4,2.63,11.23.23,2.13.67,2.49,2.99,2.15,6.41-.95,13.04-1.73,18.79,2.34,11.3,7.99,10.53,21.62-1.75,30.08-3.3,2.28-6.9,4.29-10.63,5.73-4.12,1.59-6.41,3.88-5.21,8.35.77,2.89,5.81,4.52,9.72,3.32,6.07-1.88,10.84-5.44,14.7-10.6,12.09-16.14,10.4-35.6-2.22-50.16-8.08-9.33-17.74-16.27-29.44-19.63-21.42-6.15-43.34,7.32-49.6,29.31-5.45,19.13,3.43,35.38,15.98,46.04,8.85,7.52,18.69,13.25,29.47,17.45,3.55,1.38,5.36,3.93,4.08,7.61-1.36,3.9-5.07,3.63-7.85,2.53-19.02-7.52-35.74-18.21-46.8-36.06-11.9-19.2-9.14-40.64,3.31-57.76,17.06-23.44,46.02-28.24,70.46-12.36,14.16,9.2,25.63,20.47,30.2,37.65,5.61,21.1-5.74,46.29-25.53,55.2-10.2,4.59-22.32.55-26.51-8.84-.33-.73-.94-1.55-.83-2.23,1.06-6.6-3.58-4.91-6.66-4.23-3.1.68-6.1.82-9.15.5-8.13-.86-11.31-6.93-13.32-13.61-2.04-6.78-3.61-13.74-3.26-20.97ZM1354.6,452.13c2.54.72,5.11-.74,7.84-1.03,9.63-1.02,18.33-4.81,26.23-10.31,2.77-1.93,3.73-5.1,2.6-8.23-1.03-2.83-3.73-3.71-6.72-3.83-4.44-.18-8.64.35-12.64,2.49-3.76,2.01-7.24,1.43-9.75-2.19-1.71-2.46-1.22-5.4-.44-7.96,1.29-4.23.08-8.11-1.49-11.7-2.36-5.4-7.47-5.53-10.85-.67-.83,1.2-1.48,2.41-2,3.81-4.47,11.96-3,23.68.88,35.44,1.05,3.18,2.8,4.57,6.33,4.17Z"/>
  <path class="cls-11" d="M1378.76,564c.14-1.66.24-3.26.98-4.78,1.12-2.31,3.02-3.38,5.49-3.32,2.7.06,4.22,1.79,4.55,4.27,1.61,11.9,3.18,23.81,4.6,35.73.41,3.46-1.01,6.16-4.84,6.64-3.83.48-5.91-1.83-6.4-5.23-1.59-11.09-2.93-22.21-4.37-33.31Z"/>
  <path class="cls-12" d="M1123.71,265.43c12.25.68,23.45,4.21,32.27,13.5,2.16,2.28,3.73,4.94,4.72,7.89,2.43,7.26-1.14,12.64-8.73,13.48-2.21.25-3.75-.11-4.54-2.49-3.6-10.83-15.78-16.44-26.33-14.53-10.03,1.82-18.63,12.46-19.57,24.06-1.31,16.24,9.62,27.65,25.58,26.86,3.72-.19,7.18-1.58,9.6-3.88,3.91-3.72,6.64-3.5,9.98.46,3.37,4,3.75,7.93.58,11.74-3,3.6-6.93,5.77-11.32,7.11-14.45,4.41-27.44.6-38.92-8.17-14.37-10.98-17.58-26.11-13.36-42.96,4.3-17.17,14.68-28.7,32.57-32.38,2.37-.49,4.84-.46,7.45-.69Z"/>
  <path class="cls-11" d="M1208.48,457.73c-.23,2.29-.79,4.25-2.97,5.33-2.27,1.13-4.5,1.08-6.28-.75-1.21-1.25-2.14-2.83-2.94-4.4-4.39-8.67-8.69-17.4-13.06-26.09-1.04-2.07-1.76-4.18-1.53-6.52.24-2.56,1.73-4.19,4.07-4.92,2.55-.79,4.73.33,5.71,2.54,4.88,10.96,10.85,21.37,16.15,32.11.42.86.58,1.85.84,2.69Z"/>
  <path class="cls-12" d="M897.01,341.86c-4.71.26-6.48-3.22-7.8-7.06-3.16-9.22-6.22-18.47-9.33-27.7-2.44-7.24-5.03-14.43-7.3-21.72-.97-3.11-2.38-3.77-5.34-2.56-4.21,1.71-8.53,3.16-12.85,4.6-6.03,2.02-9.72.66-11.69-4.2-2.05-5.05-.29-8.9,5.9-11.29,11.37-4.38,22.86-8.44,34.32-12.59,6.42-2.32,12.81-4.74,19.31-6.79,5.75-1.82,8.98-.34,10.75,4.3,1.99,5.22.51,8.78-5.11,11.26-4,1.77-8.12,3.39-12.34,4.53-4.57,1.23-5.86,3.07-4.13,7.89,5.32,14.83,10.13,29.84,15.14,44.79.31.92.63,1.85.91,2.78,2.55,8.39-1.34,13.65-10.43,13.78Z"/>
  <path class="cls-11" d="M832.75,421.83c-.26.85-.57,2.28-1.13,3.6-4.18,9.67-8.42,19.31-12.65,28.96-1.59,3.63-4.02,6.25-8.26,4.46-4.09-1.72-3.85-5.35-2.41-8.71,4.6-10.72,9.35-21.37,14.12-32.01,1.16-2.59,3.39-3.47,6.06-2.78,2.94.76,3.94,3.1,4.28,6.48Z"/>
  <path class="cls-12" d="M658.72,431.46c-.91-2.69-.26-4.64,3.06-5.6,4.93-1.43,8.91-.52,11.19,3.29,2.99,5.01,2.63,10.44.61,15.54-6.13,15.42-17.68,24.84-33.82,27.83-17.02,3.16-30.2-4.25-40.22-17.46-20.36-26.84-4.73-63.48,28.74-67.9,3.98-.53,7.8-.06,11.41,1.68,6.11,2.95,7.44,10.01,3.06,15.19-1.32,1.56-2.63,1.41-4.33,1.01-10.29-2.43-18.73.96-24.97,9.1-6.38,8.33-5.64,17.37-.56,26.07,5.14,8.81,12.41,14.64,23.23,14.32,9.51-.28,16.15-5.24,20.64-13.36,1.61-2.92,2.08-6.13,1.98-9.71Z"/>
  <path class="cls-11" d="M625.1,570.69c-.64,8.73-1.3,17.45-1.9,26.18-.27,3.94-1.97,6.8-6.23,6.4-4.27-.4-5.36-3.76-5.11-7.51.73-11.32,1.6-22.63,2.33-33.94.19-3,1.37-5.04,4.52-5.28,3.49-.27,5.69,1.69,6.15,4.93.43,3.02.09,6.14.09,9.22.05,0,.11,0,.16.01Z"/>
  <path class="cls-8" d="M1354.6,452.13c-3.53.4-5.28-1-6.33-4.17-3.89-11.76-5.35-23.48-.88-35.44.52-1.4,1.17-2.61,2-3.81,3.38-4.85,8.48-4.73,10.85.67,1.57,3.59,2.78,7.47,1.49,11.7-.78,2.56-1.27,5.49.44,7.96,2.51,3.61,5.99,4.2,9.75,2.19,4-2.14,8.21-2.67,12.64-2.49,2.99.12,5.69.99,6.72,3.83,1.13,3.12.17,6.3-2.6,8.23-7.9,5.5-16.6,9.3-26.23,10.31-2.73.29-5.3,1.75-7.84,1.03Z"/>
</svg>