<svg width="25" height="24" viewBox="0 0 25 24" fill="none" xmlns="http://www.w3.org/2000/svg">
<path d="M17.043 4H7.04298C3.21298 4 2.14298 4.92 2.05298 8.5C3.98298 8.5 5.54298 10.07 5.54298 12C5.54298 13.93 3.98298 15.49 2.05298 15.5C2.14298 19.08 3.21298 20 7.04298 20H17.043C21.043 20 22.043 19 22.043 15V9C22.043 5 21.043 4 17.043 4Z" stroke="#171717" stroke-width="1.5" stroke-linecap="round" stroke-linejoin="round"/>
<path d="M9.04126 4V7.5" stroke="#171717" stroke-width="1.5" stroke-linecap="round" stroke-linejoin="round"/>
<path d="M9.04126 16.5V20" stroke="#171717" stroke-width="1.5" stroke-linecap="round" stroke-linejoin="round"/>
<path d="M15.0731 9.33003L15.6931 10.58C15.7531 10.7 15.8731 10.79 16.0031 10.81L17.3831 11.01C17.7231 11.06 17.8631 11.48 17.6131 11.72L16.6131 12.69C16.5131 12.78 16.4731 12.92 16.4931 13.06L16.7331 14.43C16.7931 14.77 16.4331 15.03 16.1331 14.87L14.9031 14.22C14.7831 14.16 14.6331 14.16 14.5131 14.22L13.2831 14.87C12.9731 15.03 12.6231 14.77 12.6831 14.43L12.9231 13.06C12.9431 12.92 12.9031 12.79 12.8031 12.69L11.8131 11.72C11.5631 11.48 11.7031 11.06 12.0431 11.01L13.4231 10.81C13.5631 10.79 13.6731 10.71 13.7331 10.58L14.3431 9.33003C14.4831 9.02003 14.9231 9.02003 15.0731 9.33003Z" stroke="#171717" stroke-width="1.5" stroke-linecap="round" stroke-linejoin="round"/>
</svg>
