<svg width="64" height="64" viewBox="0 0 64 64" fill="none" xmlns="http://www.w3.org/2000/svg">
<path fill-rule="evenodd" clip-rule="evenodd" d="M45.3333 18.6666C45.3333 11.3028 39.3637 5.33331 31.9999 5.33331C24.6361 5.33331 18.6666 11.3028 18.6666 18.6666C18.6666 26.0304 24.6361 32 31.9999 32H29.3333C16.0784 32 5.33325 42.7451 5.33325 56C5.33325 57.4727 6.52716 58.6666 7.99992 58.6666H55.9999C57.4727 58.6666 58.6666 57.4727 58.6666 56C58.6666 42.7451 47.9214 32 34.6666 32H31.9999C35.5361 32 38.9275 30.5952 41.428 28.0947C43.9285 25.5943 45.3333 22.2029 45.3333 18.6666ZM29.3333 37.3333C20.0522 37.3309 12.1791 44.1475 10.8533 53.3333H53.1466C51.8207 44.1475 43.9476 37.3309 34.6666 37.3333H29.3333ZM23.9999 18.6666C23.9999 23.0849 27.5816 26.6666 31.9999 26.6666C34.1217 26.6666 36.1565 25.8238 37.6568 24.3235C39.1571 22.8232 39.9999 20.7884 39.9999 18.6666C39.9999 14.2484 36.4182 10.6666 31.9999 10.6666C27.5816 10.6666 23.9999 14.2484 23.9999 18.6666Z" fill="#231F20"/>
</svg>
