<svg width="1440" height="128" viewBox="0 0 1440 128" fill="none" xmlns="http://www.w3.org/2000/svg">
<path d="M-44.9154 33.9925C-20.0798 75.7606 68.0461 168.143 205.817 94.5526C215.732 89.2564 252.489 63.7514 246.664 50.4308C230.357 13.1335 140.017 96.2291 400.386 114.382C488.054 115.317 537.564 103.375 666.012 74.7228C913.904 30.7928 1073.68 60.0954 1087.81 86.202C1101.93 112.309 1094.57 123.799 1084.98 124.598C1075.4 125.397 1063.19 120.989 1065.43 104.109C1067.68 87.2278 1132.26 54.4233 1139 51.3643C1145.74 48.3053 1238.15 -1.50361 1303.97 3.33897C1400.71 10.4561 1439.86 91.5476 1439.86 91.5476" stroke="#BAFBE4" stroke-width="6" stroke-linecap="round"/>
</svg>
