<svg width="1440" height="396" viewBox="0 0 1440 396" fill="none" xmlns="http://www.w3.org/2000/svg">
<path d="M2.34515 335.874C35.5485 371.056 140.884 441.485 256.815 339.111C265.159 331.743 294.775 298.708 286.2 287.021C262.192 254.299 193.962 355.385 448.211 315.147C532.66 296.553 577.564 273.899 694.585 217.395C922.962 119.427 1083.05 112.435 1102.45 134.737C1121.86 157.038 1117.36 169.876 1108.33 172.787C1099.29 175.698 1086.58 174.118 1084.96 157.167C1083.34 140.215 1138.06 93.875 1143.86 89.3935C1149.65 84.912 1227.31 15.8088 1291.64 5.88354C1386.19 -8.70354 1441.94 61.6172 1441.94 61.6172" stroke="#00D3A9" stroke-width="6" stroke-linecap="round"/>
</svg>
