<svg width="230" height="178" viewBox="0 0 230 178" fill="none" xmlns="http://www.w3.org/2000/svg">
<path d="M74.3763 166.947C74.8014 164.344 71.8524 162.564 69.355 161.66C65.5558 160.279 60.747 159.296 57.984 162.245C55.9117 164.45 56.1242 168.143 57.8245 170.667C59.5248 173.191 62.3411 174.705 65.2105 175.715C68.8237 176.964 72.7026 177.548 76.5283 177.415C77.2457 177.389 78.0162 177.336 78.6272 176.937C79.2117 176.565 79.6103 175.981 79.9822 175.396C88.5902 161.767 95.8432 147.261 101.608 132.197C101.396 132.781 93.3459 134.455 92.0175 135.73C90.1312 137.537 89.2278 140.645 87.9526 142.877C83.4626 150.927 78.8929 158.924 74.3763 166.947Z" fill="#4B486D"/>
<path d="M202.593 36.7117C210.829 39.3153 218.375 44.0445 224.326 50.288C228.178 54.3263 231.526 60.1977 229.188 65.2722C227.036 69.9747 221.058 71.5689 215.904 71.2235C204.028 70.4796 193.826 62.8545 182.508 59.1616C171.695 55.6281 160.085 55.7344 148.714 55.8938C148.156 52.3071 147.624 48.6407 148.395 45.0806C150.6 34.9317 162.635 35.6225 170.845 34.6926C181.419 33.5237 192.338 33.444 202.593 36.6852V36.7117Z" fill="url(#paint0_linear_27_3)"/>
<path d="M145.765 135.465C145.871 137.298 146.057 139.238 147.2 140.699C148.555 142.452 150.972 143.063 153.204 143.037C162.29 142.984 169.49 135.226 178.337 133.021C177.62 135.704 177.168 138.467 176.982 141.23C176.903 142.479 176.903 143.834 177.593 144.87C178.47 146.172 180.33 146.623 181.844 146.172C183.359 145.72 184.607 144.578 185.511 143.302C187.689 140.274 188.433 136.475 188.911 132.755C189.177 130.789 189.363 128.77 188.858 126.83C188.353 124.891 187.052 123.084 185.165 122.5C182.535 121.676 179.878 123.376 177.567 124.891C169.729 129.965 161.015 133.658 151.902 135.731C151.132 128.185 150.388 120.667 149.617 113.121C149.352 110.385 147.944 111.74 147.147 113.121C146.11 114.901 146.296 118.701 146.084 120.746C145.606 125.635 145.499 130.55 145.765 135.465Z" fill="#4B486D"/>
<path d="M70.126 16.5202C61.0132 29.2728 51.927 41.9988 42.8142 54.7514C41.4592 56.2127 36.2785 62.1638 36.2254 71.1438C36.1722 77.4138 38.6696 82.0367 39.8917 84.0027C47.8089 100.103 55.7262 116.176 63.6169 132.277C65.1047 134.322 69.5415 139.928 77.5384 142.399C89.0424 145.959 98.6334 140.22 100.121 139.291C124.59 130.018 149.059 120.773 173.528 111.5C173.528 111.5 190.505 102.148 184.049 81.3724C179.294 71.1969 174.564 61.0214 169.809 50.8459" fill="url(#paint1_linear_27_3)"/>
<path d="M76.767 12.7477C92.0436 8.78909 107.294 4.83038 122.57 0.871766C132.666 0.81863 138.617 3.92718 141.912 6.29172C146.428 9.55958 148.235 13.0665 158.623 30.4685C161.705 35.6226 164.202 39.7407 165.663 42.1584C166.142 42.7695 166.753 43.6195 167.39 44.7088C168.187 46.0638 169.277 48.1361 169.834 50.846C170.924 56.1862 169.277 62.6422 157.48 66.1491C135.084 72.8177 107.984 83.1261 107.984 83.1261C104.61 84.1888 98.5793 85.464 92.7875 82.8603C86.8097 80.1769 84.1264 74.7837 81.443 69.4967C77.2984 61.3138 72.0911 51.1648 64.6256 37.0838C64.227 35.9414 62.0218 29.2729 65.6351 22.2059C69.142 15.3514 75.545 13.1728 76.7405 12.7743L76.767 12.7477Z" fill="url(#paint2_linear_27_3)"/>
<path d="M30.6989 46.7011C23.0739 47.4981 15.9537 51.4302 10.7464 57.0626C5.53912 62.695 2.24468 69.9214 0.756873 77.4136C-0.305844 82.8334 -0.358973 88.8113 2.59007 93.4607C5.5391 98.1101 12.367 100.554 16.857 97.3395C19.0356 95.7986 20.2843 93.2746 21.3736 90.8569C23.4193 86.3404 25.1728 81.691 26.6872 76.962C28.2016 72.1797 29.5033 67.2115 32.4258 63.1466C35.3482 59.0817 40.4759 56.1327 45.3378 57.3548C47.3836 57.8862 49.323 59.1083 51.4484 58.9754C53.5738 58.816 55.2211 56.85 55.5399 54.8308C56.0447 51.6161 54.4506 51.2974 51.9798 50.2878C45.4707 47.6576 37.6597 45.9571 30.6724 46.6745L30.6989 46.7011Z" fill="url(#paint3_linear_27_3)"/>
<path d="M95.6048 34.3205C95.5517 34.7722 95.472 35.6223 95.844 36.5787C96.03 37.0304 96.269 37.6946 96.9864 38.1463C97.81 38.6777 98.6602 38.5979 98.979 38.5713C99.9089 38.4916 100.546 38.0134 100.865 37.8009C101.848 37.057 102.831 35.7021 102.778 34.0017C102.778 33.7892 102.645 31.0261 100.573 30.3087C99.0853 29.7774 97.5709 30.6275 96.8004 31.3979C95.8174 32.381 95.6579 33.6562 95.6048 34.3735V34.3205Z" fill="#4B486D"/>
<path d="M123.659 38.5714C123.606 39.023 123.527 39.8733 123.899 40.8297C124.085 41.2814 124.324 41.9455 125.041 42.3972C125.865 42.9285 126.715 42.8489 127.034 42.8223C127.963 42.7426 128.601 42.2643 128.92 42.0518C129.903 41.3079 130.886 39.9529 130.833 38.2526C130.833 38.04 130.7 35.2769 128.628 34.5596C127.14 34.0282 125.625 34.8785 124.855 35.649C123.872 36.632 123.713 37.9072 123.659 38.6246V38.5714Z" fill="#4B486D"/>
<path d="M91.1396 89.5285C87.367 101.404 83.9929 113.413 80.9641 125.502Z" fill="#B75674"/>
<defs>
<linearGradient id="paint0_linear_27_3" x1="147.996" y1="52.626" x2="229.932" y2="52.626" gradientUnits="userSpaceOnUse">
<stop stop-color="#FE7661"/>
<stop offset="0.24" stop-color="#FC6A6C"/>
<stop offset="0.6" stop-color="#FB6077"/>
<stop offset="1" stop-color="#FB5D7B"/>
</linearGradient>
<linearGradient id="paint1_linear_27_3" x1="226.85" y1="86.686" x2="-38.5899" y2="74.8367" gradientUnits="userSpaceOnUse">
<stop stop-color="#FE7661"/>
<stop offset="0.24" stop-color="#FC6A6C"/>
<stop offset="0.6" stop-color="#FB6077"/>
<stop offset="1" stop-color="#FB5D7B"/>
</linearGradient>
<linearGradient id="paint2_linear_27_3" x1="-46.0564" y1="22.4183" x2="173.899" y2="50.4741" gradientUnits="userSpaceOnUse">
<stop stop-color="#D8D8D5"/>
<stop offset="0.11" stop-color="#E0E0DE"/>
<stop offset="0.39" stop-color="#F1F1F0"/>
<stop offset="0.68" stop-color="#FBFBFB"/>
<stop offset="1" stop-color="white"/>
</linearGradient>
<linearGradient id="paint3_linear_27_3" x1="26.2089" y1="68.1414" x2="81.9219" y2="163.361" gradientUnits="userSpaceOnUse">
<stop stop-color="#FE7661"/>
<stop offset="0.24" stop-color="#FC6A6C"/>
<stop offset="0.6" stop-color="#FB6077"/>
<stop offset="1" stop-color="#FB5D7B"/>
</linearGradient>
</defs>
</svg>
