<svg width="370" height="417" viewBox="0 0 370 417" fill="none" xmlns="http://www.w3.org/2000/svg">
<path d="M247.16 242.381C250.063 243.416 252.943 244.525 255.797 245.707C278.242 255.004 298.636 268.632 315.814 285.811C332.993 302.989 346.621 323.383 355.918 345.828C365.215 368.273 370 392.33 370 416.625H0C0 392.33 4.78491 368.273 14.082 345.828C23.3791 323.383 37.0068 302.989 54.1855 285.811C71.3643 268.632 91.758 255.004 114.203 245.707C117.056 244.525 119.936 243.416 122.839 242.381C141.979 250.348 162.975 254.75 185 254.75C207.025 254.75 228.021 250.348 247.16 242.381Z" fill="#F5F5F5"/>
<circle cx="185" cy="116" r="115.625" fill="#F5F5F5"/>
</svg>
