<svg width="1440" height="472" viewBox="0 0 1440 472" fill="none" xmlns="http://www.w3.org/2000/svg">
<path d="M-3.50031 419.5C31.871 452.501 153.813 517.036 263.007 407.504C270.865 399.621 298.324 364.771 289.024 353.653C262.985 322.522 201.315 427.738 452.494 371.43C535.592 347.509 578.966 322.048 692.16 258.225C913.853 145.946 1073.17 128.8 1093.96 149.823C1114.74 170.847 1111.06 183.945 1102.23 187.424C1093.4 190.902 1080.61 190.134 1077.92 173.32C1075.23 156.505 1126.9 106.782 1132.4 101.942C1137.89 97.101 1211 23.2044 1274.57 9.21251C1368 -11.3513 1443.5 30.9994 1443.5 30.9994" stroke="#6C56F4" stroke-width="6" stroke-linecap="round"/>
</svg>
