<svg width="36" height="36" viewBox="0 0 36 36" fill="none" xmlns="http://www.w3.org/2000/svg">
<path d="M18.3571 29.6654L7.37013 15.9317C7.03761 15.516 6.87135 15.3082 6.82668 15.0577C6.78202 14.8073 6.86618 14.5548 7.0345 14.0498L8.6954 9.06712C9.13541 7.74708 9.35542 7.08706 9.87919 6.70955C10.403 6.33203 11.0987 6.33203 12.4901 6.33203H24.2241C25.6155 6.33203 26.3112 6.33203 26.835 6.70955C27.3588 7.08706 27.5788 7.74708 28.0188 9.06712L29.6797 14.0498C29.848 14.5548 29.9322 14.8073 29.8875 15.0577C29.8428 15.3082 29.6766 15.516 29.3441 15.9317L18.3571 29.6654ZM18.3571 29.6654L23.4613 13.6237M18.3571 29.6654L13.2529 13.6237M29.2946 15.082L23.4613 13.6237M23.4613 13.6237L21.2738 7.79036M23.4613 13.6237H13.2529M15.4404 7.79036L13.2529 13.6237M13.2529 13.6237L7.4196 15.082" stroke="#33363F" stroke-width="2" stroke-linecap="round"/>
</svg>
