<svg width="35" height="35" viewBox="0 0 35 35" fill="none" xmlns="http://www.w3.org/2000/svg">
<path d="M17.8993 26.0562L17.449 25.1633H17.449L17.8993 26.0562ZM17.1007 26.0562L16.6504 26.949L16.6505 26.9491L17.1007 26.0562ZM26.7084 13.1243C26.7084 16.5193 24.9262 19.273 22.8111 21.3456C20.6986 23.4156 18.3481 24.7099 17.449 25.1633L18.3496 26.949C19.3363 26.4515 21.8903 25.048 24.2109 22.7741C26.5289 20.5026 28.7084 17.266 28.7084 13.1243H26.7084ZM17.5 3.91602C22.5856 3.91602 26.7084 8.03873 26.7084 13.1243H28.7084C28.7084 6.93416 23.6902 1.91602 17.5 1.91602V3.91602ZM8.29169 13.1243C8.29169 8.03873 12.4144 3.91602 17.5 3.91602V1.91602C11.3098 1.91602 6.29169 6.93416 6.29169 13.1243H8.29169ZM17.551 25.1633C16.6519 24.7099 14.3014 23.4156 12.1889 21.3456C10.0739 19.273 8.29169 16.5193 8.29169 13.1243H6.29169C6.29169 17.266 8.47114 20.5026 10.7892 22.7741C13.1097 25.048 15.6638 26.4515 16.6504 26.949L17.551 25.1633ZM17.449 25.1633C17.4595 25.158 17.4775 25.1524 17.5 25.1524C17.5226 25.1524 17.5405 25.158 17.551 25.1633L16.6505 26.9491C17.188 27.2201 17.812 27.2201 18.3496 26.949L17.449 25.1633ZM20.875 13.1243C20.875 14.9883 19.364 16.4993 17.5 16.4993V18.4993C20.4686 18.4993 22.875 16.0929 22.875 13.1243H20.875ZM17.5 9.74935C19.364 9.74935 20.875 11.2604 20.875 13.1243H22.875C22.875 10.1558 20.4686 7.74935 17.5 7.74935V9.74935ZM14.125 13.1243C14.125 11.2604 15.6361 9.74935 17.5 9.74935V7.74935C14.5315 7.74935 12.125 10.1558 12.125 13.1243H14.125ZM17.5 16.4993C15.6361 16.4993 14.125 14.9883 14.125 13.1243H12.125C12.125 16.0929 14.5315 18.4993 17.5 18.4993V16.4993Z" fill="#33363F"/>
<path d="M28.8666 25.5215C30.0185 26.1866 30.625 26.941 30.625 27.709C30.625 28.477 30.0185 29.2314 28.8666 29.8965C27.7146 30.5616 26.0578 31.1139 24.0625 31.4978C22.0672 31.8818 19.8039 32.084 17.5 32.084C15.1961 32.084 12.9328 31.8818 10.9375 31.4978C8.94225 31.1139 7.28538 30.5616 6.13342 29.8965C4.98146 29.2314 4.375 28.477 4.375 27.709C4.375 26.941 4.98146 26.1866 6.13342 25.5215" stroke="#33363F" stroke-width="2" stroke-linecap="round"/>
</svg>
