<svg width="87" height="89" viewBox="0 0 87 89" fill="none" xmlns="http://www.w3.org/2000/svg">
<rect width="86.2222" height="89" rx="23" fill="white"/>
<path d="M36.7498 40.8337L44.3413 46.5272C44.7597 46.8411 45.3494 46.7794 45.6939 46.3857L59.6665 30.417" stroke="#33363F" stroke-width="2" stroke-linecap="round"/>
<path d="M61.75 45C61.75 48.9177 60.5228 52.737 58.2409 55.9215C55.9589 59.1059 52.7368 61.4956 49.027 62.7549C45.3172 64.0142 41.3062 64.0799 37.5572 62.9426C33.8082 61.8054 30.5096 59.5224 28.1246 56.4143C25.7397 53.3062 24.3882 49.5291 24.26 45.6135C24.1319 41.6979 25.2334 37.8405 27.4099 34.5831C29.5865 31.3256 32.7287 28.8318 36.3953 27.4518C40.0619 26.0718 44.0687 25.8749 47.8529 26.8889" stroke="#33363F" stroke-width="2" stroke-linecap="round"/>
</svg>
