<svg width="1440" height="338" viewBox="0 0 1440 338" fill="none" xmlns="http://www.w3.org/2000/svg">
<path d="M-8.45919 271.902C23.0048 308.648 124.813 384.087 245.557 287.436C254.247 280.48 285.426 248.915 277.426 236.827C255.027 202.983 181.991 300.653 437.887 272.751C523.137 258.261 569.083 237.804 688.698 187.023C921.544 100.208 1081.78 100.963 1100.09 124.177C1118.39 147.39 1113.27 159.995 1104.11 162.466C1094.95 164.937 1082.32 162.745 1081.53 145.735C1080.73 128.725 1137.63 85.0839 1143.63 80.8877C1149.64 76.6916 1230.54 11.4228 1295.28 4.61875C1390.42 -5.38111 1442.71 67.5525 1442.71 67.5525" stroke="#BAFBE4" stroke-width="6" stroke-linecap="round"/>
</svg>
