<?xml version="1.0" encoding="UTF-8"?>
<!DOCTYPE svg PUBLIC "-//W3C//DTD SVG 1.1//EN" "http://www.w3.org/Graphics/SVG/1.1/DTD/svg11.dtd">
<svg xmlns="http://www.w3.org/2000/svg" version="1.1" width="602px" height="228px" style="shape-rendering:geometricPrecision; text-rendering:geometricPrecision; image-rendering:optimizeQuality; fill-rule:evenodd; clip-rule:evenodd" xmlns:xlink="http://www.w3.org/1999/xlink">
<g><path style="opacity:0.94" fill="#00d3a9" d="M 216.5,-0.5 C 219.5,-0.5 222.5,-0.5 225.5,-0.5C 232.682,4.15116 237.182,10.8178 239,19.5C 243.066,43.7569 238.899,66.5902 226.5,88C 245.287,106.9 267.621,119.9 293.5,127C 346.655,140.792 400.321,143.125 454.5,134C 498.645,126.845 536.479,107.679 568,76.5C 580.286,63.267 588.952,47.9337 594,30.5C 594.825,26.7887 594.659,23.122 593.5,19.5C 588.766,23.0654 584.933,27.3987 582,32.5C 579,38.5 576,44.5 573,50.5C 569.889,52.272 568.056,51.4387 567.5,48C 571.705,34.9195 578.705,23.5861 588.5,14C 594.491,11.0952 598.824,12.5952 601.5,18.5C 601.5,22.5 601.5,26.5 601.5,30.5C 592.207,60.6493 574.54,84.816 548.5,103C 511.369,127.934 470.369,141.934 425.5,145C 380.518,148.918 336.185,145.252 292.5,134C 266.17,126.842 243.17,114.009 223.5,95.5C 193.934,139.566 156.934,176.066 112.5,205C 95.4416,215.871 77.1083,223.371 57.5,227.5C 51.1667,227.5 44.8333,227.5 38.5,227.5C 18.4894,223.158 5.48937,211.158 -0.5,191.5C -0.5,189.5 -0.5,187.5 -0.5,185.5C 1.33883,184.248 3.17216,184.248 5,185.5C 12.2779,211.78 29.4446,223.28 56.5,220C 79.5949,215.284 100.595,205.951 119.5,192C 152.513,168.323 181.679,140.49 207,108.5C 211.336,102.499 215.169,96.1659 218.5,89.5C 200.778,66.9535 195.945,41.9535 204,14.5C 206.312,7.82923 210.479,2.82923 216.5,-0.5 Z M 220.5,5.5 C 226.05,7.5368 229.55,11.5368 231,17.5C 235.505,31.1376 235.505,44.8042 231,58.5C 228.784,66.4824 225.784,74.1491 222,81.5C 206.871,61.3902 203.204,39.3902 211,15.5C 213.022,10.98 216.189,7.6467 220.5,5.5 Z"/></g>
</svg>
