<?xml version="1.0" encoding="UTF-8"?>
<!DOCTYPE svg PUBLIC "-//W3C//DTD SVG 1.1//EN" "http://www.w3.org/Graphics/SVG/1.1/DTD/svg11.dtd">
<svg xmlns="http://www.w3.org/2000/svg" version="1.1" width="606px" height="201px" style="shape-rendering:geometricPrecision; text-rendering:geometricPrecision; image-rendering:optimizeQuality; fill-rule:evenodd; clip-rule:evenodd" xmlns:xlink="http://www.w3.org/1999/xlink">
<g><path style="opacity:0.943" fill="#00d3a9" d="M 502.5,-0.5 C 511.833,-0.5 521.167,-0.5 530.5,-0.5C 562.097,5.76848 587.097,22.1018 605.5,48.5C 605.5,50.1667 605.5,51.8333 605.5,53.5C 603.865,54.8146 602.199,54.8146 600.5,53.5C 569.672,10.5017 529.005,-2.99831 478.5,13C 458.428,20.8629 440.094,31.5296 423.5,45C 386.382,78.4583 348.382,110.792 309.5,142C 281.512,163.496 250.512,179.496 216.5,190C 200.209,194.356 183.876,197.856 167.5,200.5C 157.167,200.5 146.833,200.5 136.5,200.5C 110.418,195.525 86.7517,185.025 65.5,169C 39.2776,147.294 17.2776,122.127 -0.5,93.5C -0.5,91.8333 -0.5,90.1667 -0.5,88.5C 1.93577,86.9829 4.10244,87.3162 6,89.5C 27.0238,125.525 55.1905,154.691 90.5,177C 118.735,193.151 148.735,197.817 180.5,191C 223.408,183.705 262.408,167.371 297.5,142C 309.5,132.667 321.5,123.333 333.5,114C 364.538,86.6261 395.872,59.6261 427.5,33C 449.869,15.8132 474.869,4.64652 502.5,-0.5 Z"/></g>
</svg>
