<svg width="43" height="43" viewBox="0 0 43 43" fill="none" xmlns="http://www.w3.org/2000/svg">
<path d="M21.5 43C24.4409 43 27.2099 42.4362 29.8073 41.3088C32.4045 40.1953 34.686 38.6484 36.6511 36.6685C38.6299 34.6886 40.1827 32.4064 41.3096 29.8216C42.4364 27.223 43 24.4457 43 21.4897C43 18.5474 42.4364 15.7838 41.3096 13.199C40.1827 10.6005 38.6299 8.31128 36.6511 6.33143C34.686 4.35155 32.3978 2.80478 29.7866 1.69114C27.1894 0.563708 24.4203 0 21.4794 0C18.5385 0 15.7694 0.563708 13.1721 1.69114C10.5748 2.80478 8.28666 4.35155 6.30778 6.33143C4.3426 8.31128 2.79659 10.6005 1.6697 13.199C0.556568 15.7838 0 18.5474 0 21.4897C0 24.4457 0.556568 27.223 1.6697 29.8216C2.79659 32.4064 4.34948 34.6886 6.32839 36.6685C8.30728 38.6484 10.5954 40.1953 13.1927 41.3088C15.79 42.4362 18.5591 43 21.5 43ZM19.2119 31.7189C18.7859 31.7189 18.4011 31.6295 18.0575 31.4507C17.714 31.2583 17.391 30.9697 17.0887 30.5846L12.1208 24.6038C11.9284 24.3426 11.7772 24.0883 11.6673 23.8408C11.5711 23.5795 11.523 23.3114 11.523 23.0364C11.523 22.459 11.7223 21.9709 12.1208 21.5722C12.5193 21.1597 13.0072 20.9535 13.5844 20.9535C13.9279 20.9535 14.2371 21.0291 14.512 21.1803C14.7868 21.3178 15.0617 21.5584 15.3365 21.9022L19.15 26.6869L27.4574 13.4053C27.9521 12.6216 28.5636 12.2297 29.2919 12.2297C29.8417 12.2297 30.3295 12.4085 30.7555 12.7659C31.1952 13.1234 31.4153 13.5909 31.4153 14.1683C31.4153 14.4296 31.3602 14.6908 31.2502 14.952C31.154 15.2133 31.0304 15.4608 30.8791 15.6945L21.2526 30.5846C21.0053 30.942 20.7029 31.2239 20.3456 31.4303C20.0021 31.6227 19.6242 31.7189 19.2119 31.7189Z" fill="#FF617F"/>
</svg>
