<svg width="25" height="24" viewBox="0 0 25 24" fill="none" xmlns="http://www.w3.org/2000/svg">
<path d="M21.5 22H3.5C3.09 22 2.75 21.66 2.75 21.25C2.75 20.84 3.09 20.5 3.5 20.5H21.5C21.91 20.5 22.25 20.84 22.25 21.25C22.25 21.66 21.91 22 21.5 22Z" fill="#FF4D6F"/>
<path d="M19.5201 3.48004C17.5801 1.54004 15.6801 1.49004 13.6901 3.48004L12.4801 4.69004C12.3801 4.79004 12.3401 4.95004 12.3801 5.09004C13.1401 7.74004 15.2601 9.86003 17.9101 10.62C17.9501 10.63 17.9901 10.64 18.0301 10.64C18.1401 10.64 18.2401 10.6 18.3201 10.52L19.5201 9.31004C20.5101 8.33004 20.9901 7.38004 20.9901 6.42004C21.0001 5.43004 20.5201 4.47004 19.5201 3.48004Z" fill="#FF4D6F"/>
<path d="M16.1101 11.53C15.8201 11.39 15.5401 11.25 15.2701 11.09C15.0501 10.96 14.8401 10.82 14.6301 10.67C14.4601 10.56 14.2601 10.4 14.0701 10.24C14.0501 10.23 13.9801 10.17 13.9001 10.09C13.5701 9.81005 13.2001 9.45005 12.8701 9.05005C12.8401 9.03005 12.7901 8.96005 12.7201 8.87005C12.6201 8.75005 12.4501 8.55005 12.3001 8.32005C12.1801 8.17005 12.0401 7.95005 11.9101 7.73005C11.7501 7.46005 11.6101 7.19005 11.4701 6.91005C11.4489 6.86465 11.4284 6.81949 11.4085 6.77458C11.2609 6.44127 10.8263 6.34382 10.5685 6.60158L4.84007 12.33C4.71007 12.46 4.59007 12.71 4.56007 12.88L4.02007 16.71C3.92007 17.39 4.11007 18.03 4.53007 18.46C4.89007 18.81 5.39007 19 5.93007 19C6.05007 19 6.17007 18.99 6.29007 18.97L10.1301 18.43C10.3101 18.4 10.5601 18.28 10.6801 18.15L16.4014 12.4287C16.6609 12.1692 16.563 11.7237 16.2254 11.5797C16.1874 11.5634 16.149 11.5469 16.1101 11.53Z" fill="#FF4D6F"/>
</svg>
