<svg width="50" height="50" viewBox="0 0 50 50" fill="none" xmlns="http://www.w3.org/2000/svg">
<path fill-rule="evenodd" clip-rule="evenodd" d="M10.8111 7.16776C12.9627 6.18682 15.3885 5.98505 17.6725 6.59706C18.7839 6.89485 19.4434 8.03722 19.1456 9.14861C18.8478 10.26 17.7055 10.9195 16.5941 10.6217C15.2444 10.2601 13.811 10.3793 12.5396 10.959C11.2683 11.5386 10.2382 12.5426 9.62611 13.7986C9.01401 15.0547 8.858 16.4846 9.18485 17.8431C9.51171 19.2016 10.3011 20.404 11.4175 21.2442C12.0232 21.7 12.3335 22.4488 12.2278 23.1994C12.122 23.9501 11.6169 24.584 10.9089 24.8547C9.49359 25.3959 8.19342 26.2318 7.1014 27.3238C6.7335 27.6917 6.39475 28.0831 6.08657 28.4946C5.44442 29.3519 5.48629 30.0701 5.82424 30.7131C6.22328 31.4725 7.14021 32.2598 8.4372 32.6678C9.53477 33.0131 10.1446 34.1827 9.79937 35.2803C9.45411 36.3779 8.28446 36.9877 7.18689 36.6425C5.05814 35.9728 3.14407 34.57 2.13583 32.6514C1.06649 30.6165 1.12477 28.1687 2.75168 25.9967C3.178 25.4275 3.64652 24.8861 4.15512 24.3775C4.9393 23.5933 5.80116 22.9046 6.72258 22.3189C5.98093 21.271 5.43856 20.0844 5.13379 18.8177C4.58065 16.5188 4.84467 14.0989 5.88054 11.9733C6.91641 9.84767 8.65961 8.1487 10.8111 7.16776ZM37.4597 10.959C36.1883 10.3793 34.7549 10.2601 33.4052 10.6217C32.2938 10.9195 31.1515 10.26 30.8537 9.14861C30.5559 8.03722 31.2154 6.89485 32.3268 6.59706C34.6108 5.98506 37.0366 6.18682 39.1882 7.16776C41.3397 8.1487 43.0829 9.84767 44.1188 11.9733C45.1546 14.0989 45.4187 16.5188 44.8655 18.8177C44.5608 20.0844 44.0184 21.271 43.2767 22.3189C44.1981 22.9046 45.06 23.5933 45.8442 24.3775C46.3528 24.8861 46.8213 25.4275 47.2476 25.9967C48.8745 28.1687 48.9328 30.6165 47.8635 32.6514C46.8552 34.57 44.9412 35.9728 42.8124 36.6425C41.7148 36.9877 40.5452 36.3779 40.1999 35.2803C39.8547 34.1827 40.4645 33.0131 41.5621 32.6678C42.8591 32.2598 43.776 31.4725 44.1751 30.7131C44.513 30.07 44.5549 29.3519 43.9127 28.4946C43.6046 28.0831 43.2658 27.6917 42.8979 27.3238C41.8059 26.2318 40.5057 25.3959 39.0904 24.8547C38.3824 24.584 37.8773 23.9501 37.7715 23.1994C37.6658 22.4488 37.9761 21.7 38.5818 21.2442C39.6983 20.404 40.4876 19.2016 40.8145 17.8431C41.1413 16.4846 40.9853 15.0547 40.3732 13.7986C39.7611 12.5426 38.731 11.5386 37.4597 10.959ZM24.9999 14.5833C21.676 14.5833 18.9814 17.2779 18.9814 20.6018C18.9814 23.9258 21.6761 26.6205 25 26.6205C28.3238 26.6205 31.0184 23.9258 31.0184 20.6018C31.0184 17.2779 28.3239 14.5833 24.9999 14.5833ZM31.757 28.2231C33.8599 26.3572 35.1851 23.6343 35.1851 20.6018C35.1851 14.9767 30.625 10.4167 24.9999 10.4167C19.3748 10.4167 14.8147 14.9767 14.8147 20.6018C14.8147 23.6343 16.14 26.3572 18.2429 28.2231C16.8204 28.938 15.5075 29.8806 14.3606 31.0274C13.852 31.536 13.3835 32.0774 12.9572 32.6466C12.0017 33.9222 11.5518 35.3439 11.631 36.7787C11.709 38.1914 12.2901 39.4562 13.1209 40.4773C14.7556 42.4866 17.4967 43.7501 20.3703 43.7501H29.6296C32.5032 43.7501 35.2443 42.4866 36.8791 40.4773C37.7098 39.4562 38.2909 38.1914 38.3689 36.7787C38.4481 35.3439 37.9982 33.9222 37.0427 32.6466C36.6164 32.0774 36.1479 31.536 35.6393 31.0274C34.4924 29.8806 33.1795 28.938 31.757 28.2231ZM25 30.7871C22.1145 30.7871 19.3472 31.9334 17.3069 33.9737C16.939 34.3416 16.6003 34.733 16.2921 35.1445C15.868 35.7107 15.771 36.1813 15.7913 36.5489C15.8129 36.9387 15.9777 37.3865 16.353 37.8477C17.1302 38.8031 18.6416 39.5834 20.3703 39.5834H29.6296C31.3584 39.5834 32.8697 38.8031 33.647 37.8477C34.0222 37.3865 34.1871 36.9387 34.2086 36.5489C34.2289 36.1813 34.1319 35.7107 33.7079 35.1445C33.3997 34.7331 33.0609 34.3416 32.693 33.9737C30.6527 31.9334 27.8854 30.7871 25 30.7871Z" fill="#FF4D6F"/>
</svg>
