<svg width="50" height="54" viewBox="0 0 50 54" fill="none" xmlns="http://www.w3.org/2000/svg">
<path fill-rule="evenodd" clip-rule="evenodd" d="M33.86 14.2332C33.0147 14.0861 32.1494 14.1309 31.3219 14.3646C30.2105 14.6785 29.0681 13.9833 28.7703 12.8119C28.4725 11.6404 29.1321 10.4363 30.2435 10.1224C31.6439 9.72688 33.1083 9.65105 34.5387 9.89999C35.9692 10.1489 37.3327 10.7169 38.5382 11.5659C39.7436 12.4149 40.7633 13.5254 41.5289 14.8231C42.2945 16.1209 42.7884 17.5759 42.9776 19.091C43.1669 20.6061 43.0471 22.1463 42.6262 23.6087C42.2053 25.0711 41.4931 26.4219 40.5372 27.5709C40.2556 27.9093 39.9547 28.228 39.6366 28.5253C41.0591 29.2789 42.3721 30.2724 43.519 31.4813C44.0276 32.0174 44.4961 32.588 44.9224 33.1879C45.8779 34.5325 46.3278 36.0311 46.2486 37.5434C46.1706 39.0325 45.5895 40.3656 44.7587 41.4419C43.124 43.5599 40.3829 44.8916 37.5093 44.8916H35.1945C34.0439 44.8916 33.1111 43.9085 33.1111 42.6957C33.1111 41.4829 34.0439 40.4997 35.1945 40.4997H37.5093C39.238 40.4997 40.7494 39.6772 41.5266 38.6702C41.9019 38.184 42.0667 37.712 42.0883 37.3012C42.1086 36.9137 42.0116 36.4177 41.5875 35.8209C41.2793 35.3872 40.9406 34.9746 40.5727 34.5868C38.5324 32.4362 35.7651 31.228 32.8796 31.228C31.729 31.228 30.7963 30.2448 30.7963 29.0321C30.7963 27.8193 31.729 26.8361 32.8796 26.8361C33.7363 26.8361 34.5831 26.6433 35.3635 26.2707C36.1438 25.898 36.8397 25.354 37.4045 24.6751C37.9694 23.9962 38.3903 23.1979 38.6389 22.3338C38.8876 21.4697 38.9584 20.5596 38.8466 19.6643C38.7348 18.769 38.4429 17.9092 37.9905 17.1423C37.5381 16.3755 36.9356 15.7193 36.2233 15.2176C35.511 14.7159 34.7052 14.3803 33.86 14.2332ZM17.1296 14.1485C13.8056 14.1485 11.1111 16.9887 11.1111 20.4923C11.1111 23.9959 13.8057 26.8361 17.1296 26.8361C20.4536 26.8361 23.1481 23.9959 23.1481 20.4923C23.1481 16.9887 20.4535 14.1485 17.1296 14.1485ZM23.8867 28.5253C25.9896 26.5587 27.3148 23.6886 27.3148 20.4923C27.3148 14.5631 22.7547 9.75659 17.1296 9.75659C11.5045 9.75659 6.9444 14.5631 6.9444 20.4923C6.9444 23.6886 8.26961 26.5587 10.3725 28.5254C8.95003 29.2789 7.63713 30.2724 6.49029 31.4813C5.98168 32.0174 5.51317 32.588 5.08685 33.1879C4.13138 34.5325 3.68145 36.0311 3.76068 37.5434C3.83868 39.0325 4.41978 40.3656 5.25053 41.4419C6.8853 43.5599 9.62639 44.8916 12.5 44.8916H21.7593C24.6329 44.8916 27.374 43.5599 29.0087 41.4419C29.8395 40.3656 30.4206 39.0325 30.4986 37.5434C30.5778 36.0311 30.1279 34.5325 29.1724 33.1879C28.7461 32.588 28.2776 32.0174 27.769 31.4813C26.6221 30.2724 25.3092 29.2789 23.8867 28.5253ZM17.1296 31.228C14.2442 31.228 11.4769 32.4362 9.43657 34.5868C9.06867 34.9746 8.72992 35.3872 8.42174 35.8209C7.99764 36.4177 7.9007 36.9137 7.921 37.3012C7.94252 37.712 8.10735 38.184 8.48263 38.6702C9.2599 39.6772 10.7712 40.4997 12.5 40.4997H21.7593C23.488 40.4997 24.9994 39.6772 25.7766 38.6702C26.1519 38.184 26.3167 37.712 26.3382 37.3012C26.3586 36.9137 26.2616 36.4177 25.8375 35.8209C25.5293 35.3872 25.1906 34.9746 24.8227 34.5868C22.7824 32.4362 20.0151 31.228 17.1296 31.228Z" fill="#FF4D6F"/>
</svg>
